<?xml version="1.0" encoding="utf-8"?>
<!-- Generator: Adobe Illustrator 22.1.0, SVG Export Plug-In . SVG Version: 6.00 Build 0)  -->
<svg version="1.1" id="레이어_1" xmlns="http://www.w3.org/2000/svg" xmlns:xlink="http://www.w3.org/1999/xlink" x="0px"
	 y="0px" viewBox="0 0 100 100" style="enable-background:new 0 0 100 100;" xml:space="preserve">
<style type="text/css">
	.st0{fill:#8D001A;}
	.st1{fill:url(#SVGID_1_);}
	.st2{fill:#C37886;}
	.st3{fill:url(#SVGID_2_);}
	.st4{opacity:0.74;fill:#CA2790;}
	.st5{opacity:0.3;fill:#FFFFFF;}
	.st6{fill:url(#SVGID_3_);}
	.st7{opacity:0.74;fill:#D983EA;}
	.st8{fill:#F5FFEA;}
	.st9{opacity:0.3;fill:#BD3EA9;}
	.st10{fill:#FF8959;}
	.st11{opacity:0.8;fill:#E03D90;}
	.st12{fill:#FF6D2C;}
	.st13{fill:url(#SVGID_4_);}
	.st14{fill:url(#SVGID_5_);}
	.st15{fill:#FFFFFF;}
</style>
<g>
	<path class="st0" d="M83.1,0.6c3.4,0.1,4.2,0.8,4.4,2.7c0.2,1.8-1.5,68.6-1.5,70c0,1.4-39.4,2.8-53.2,0.5
		C18.9,71.5,83.1,0.6,83.1,0.6z"/>
	<linearGradient id="SVGID_1_" gradientUnits="userSpaceOnUse" x1="55.1223" y1="74.6035" x2="55.1223" y2="0.3555">
		<stop  offset="0" style="stop-color:#B42B00"/>
		<stop  offset="1" style="stop-color:#B32C11"/>
	</linearGradient>
	<path class="st1" d="M31.8,73.6C29.6,73,23.6,7.7,25.9,5.4s53.8-6,57.2-4.9c3.4,1.1,1.1,71.6,0,72.7C81.9,74.3,38.9,75.5,31.8,73.6
		z"/>
	<path class="st2" d="M78,6.4c0,0,3-0.6,4.2,0.9c1.1,1.5,0.2,53.7-0.6,60c-0.7,6.3-7.3,5.2-7.3,5.2L78,6.4z"/>
	<path class="st0" d="M72.6,0.6C76,0.7,78,1.4,78.2,3.2c0.2,1.8-1.5,68.6-1.5,70c0,1.4-39.4,2.8-53.2,0.5
		C9.7,71.5,72.6,0.6,72.6,0.6z"/>
	<linearGradient id="SVGID_2_" gradientUnits="userSpaceOnUse" x1="45.2355" y1="74.7249" x2="45.2355" y2="0.3555">
		<stop  offset="0" style="stop-color:#B42B00"/>
		<stop  offset="1" style="stop-color:#CE5411"/>
	</linearGradient>
	<path class="st3" d="M22.6,73.6C20.4,73,14.4,7.7,16.7,5.4s52.5-6,55.9-4.9c3.4,1.1,0.7,72-0.4,73C71.1,74.6,29.7,75.5,22.6,73.6z"
		/>
	<path class="st4" d="M28.7,74.2l-2.3,0.1C26.1,25.8,22.1,4,22.1,4l3.3-0.4c0,0.6,0,1.3,0,2C25.7,23.5,28.7,74.2,28.7,74.2z"/>
	<path class="st4" d="M28.7,74.2l-2.3,0.1C26.1,25.8,22.1,4,22.1,4l3.3-0.4c0,0.6,0,1.3,0,2l0,0C23.2,5.4,26.7,70.4,28.7,74.2z"/>
	<path class="st5" d="M16.7,5.4c-0.3,1.7-0.1,31.1,2.8,45.4c2.8,14.3,4.8-12.1,4.7-19.1c-0.1-7-2.1-25.1-3.1-26.3
		C20,4.2,16.7,5.4,16.7,5.4z"/>
	<path class="st4" d="M33.4,15.9c1.4-3.5,24.9-4.7,28.2-2.8c3.3,1.9,1.3,44.5,0,47.4c-1.3,2.9-23.9,2.6-25.6,0.9
		C34.2,59.8,30.9,22.1,33.4,15.9z"/>
	<linearGradient id="SVGID_3_" gradientUnits="userSpaceOnUse" x1="47.2271" y1="61.1769" x2="47.2271" y2="13.7821">
		<stop  offset="0" style="stop-color:#DE0086"/>
		<stop  offset="0.3436" style="stop-color:#F50051"/>
		<stop  offset="1" style="stop-color:#A4003B"/>
	</linearGradient>
	<path class="st6" d="M33,17.2c1.3-3.3,24.4-4.4,27.6-2.6s1.3,41.8,0,44.5c-1.3,2.7-23.5,2.4-25.1,0.8C33.8,58.4,30.6,23.1,33,17.2z
		"/>
	<path class="st7" d="M61.1,15.4c-2.2-1.3-2.6,39.9-2.2,42.2c0.4,2.3,1.7,1.5,1.7,1.5S63.7,36.3,61.1,15.4z"/>
	<path class="st8" d="M33.8,17.8c-1,1.6,22.5-0.2,24.9-0.9c2.5-0.7,1.8-2.3,1.8-2.3S37.2,12,33.8,17.8z"/>
	<path class="st7" d="M35.5,60c0,0,12,1.6,18.4,0.6c6.4-1.1,6.7-1.4,6.7-1.4s-0.2,2.1-11.3,2.5C38.1,61.9,35.5,60,35.5,60z"/>
	<path class="st9" d="M28,4.7c-2.1,0.6,0,6.8,1.4,8.8c1.4,2,10.4-1.5,21.9-2.2c11.4-0.7,11.5,1.5,12.1,2.8c0.5,1.3,0.4,27,0.9,29.2
		c0.5,2.2,9.7,1.8,9.7,0.9c0-0.9,0.5-40.6-1.5-42.5C70.5-0.2,34.5,2.7,28,4.7z"/>
	<path class="st10" d="M36.8,61.9c0,0,2,2.2,12,1.8c10-0.4,12.3-2.6,12.3-2.6s-4.3,1.4-12.3,1.7C40.7,62.9,36.8,61.9,36.8,61.9z"/>
	<path class="st11" d="M45.2,27.9c-1.3-3.6-7.2,2.5-5.6,9.5c1.6,7,11.4,2.8,14-5.3c2.6-8.1-2.5-9.8-8.5-12.2s-10.5,6.3-10.6,10.1
		c-0.1,3.8,0.2,16,8.4,21.9c8.2,5.9,9.3,7.3,12.6-1.5c3.2-8.8,3.2-15.4,2.1-16.3c-1.1-0.9-8.5,13.1-11.8,13.4
		c-3.3,0.4-9.5-9.2-8.5-16.8c0.9-7.7,8.9-6.1,11.6-4.4c2.7,1.6-2.5,8.2-3.7,9.6c-1.2,1.3-2.6-3.2-1.8-4.3c0.8-1,0.8,1.9,2.3,0.7
		C47.2,30.9,45.2,27.9,45.2,27.9z"/>
	<path class="st8" d="M50.5,17.9c-3.3-0.7,1.1-3.5,6.4-3.5s4.2,2,1.4,2.7C55.6,17.8,50.9,17.9,50.5,17.9z"/>
	<path class="st8" d="M35.5,58.2c-2-10,15.9,0.2,19.1,1C57.7,59.9,37.6,62.5,35.5,58.2z"/>
	<path class="st11" d="M41.6,36.1c0.7,2.9,1.3,4.1,6.7,0s3.9-7.3,4.7-10.1c0.9-2.7-12.1-4-13.9-3.5c-1.8,0.5-3.9,8.7-2,15.4
		c1.9,6.6,4.8,10.1,10.1,14.1s7.4-1.8,8.5-8.8c1-6.9-2.6-1.7-5.2,2.6c-2.6,4.4-8.7,1.3-11-3.3c-2.4-4.7-3.3-15.1-0.3-18
		s8.6,0.1,11,2.5c2.4,2.3-3.3,10.1-5.6,10.2c-2.3,0.1-2.5-4.3-2.6-6C41.9,29.5,40.5,31.5,41.6,36.1z"/>
	<path class="st12" d="M71.2,0.4c-2.8,0.8,2.4,5.1,3.1,5.1c0.7,0,2-3.3,0.9-4.3C74.1,0.1,71.2,0.4,71.2,0.4z"/>
	<path class="st12" d="M82.5,0.6c-1.5,0,0.6,2,1.5,2.3c0.9,0.3,2.5-1,1.9-1.4C85.2,1,84.8,0.5,82.5,0.6z"/>
	<path class="st12" d="M66.3,74.2c0,0,5.6-4.4,6.3-3.5c0.7,0.9-0.4,3.5-1.2,3.5C70.5,74.2,66.3,74.2,66.3,74.2z"/>
	<linearGradient id="SVGID_4_" gradientUnits="userSpaceOnUse" x1="21.8158" y1="25.4732" x2="17.4963" y2="13.6056">
		<stop  offset="0" style="stop-color:#FF9600"/>
		<stop  offset="1" style="stop-color:#FFA900"/>
	</linearGradient>
	<path class="st13" d="M16.2,14.1c0,0,6.1-1.4,6.7,0c0.6,1.4,0.7,9,0.4,10.4s-6.6,2-6.6,2S16.3,17.3,16.2,14.1z"/>
	<linearGradient id="SVGID_5_" gradientUnits="userSpaceOnUse" x1="24.6108" y1="65.3438" x2="20.6807" y2="54.546">
		<stop  offset="0" style="stop-color:#FF9600"/>
		<stop  offset="1" style="stop-color:#FFA900"/>
	</linearGradient>
	<path class="st14" d="M19.5,55c0,0,4.2-0.7,5.2,0c0.9,0.7,1.3,9.1,0.7,9.9c-0.5,0.8-4.5,0.9-4.5,0.9L19.5,55z"/>
	<path class="st4" d="M16.8,26.4c0,0,4.6-1,5.7-1.9c1.1-0.9,0.7-8.8,0.7-8.8s0.9,7.6,0.3,9.5c-0.6,1.9-6.7,1.5-6.7,1.5V26.4z"/>
	<path class="st4" d="M20.8,65.8c0,0,3.5-0.3,4.3-1.1c0.8-0.8,0.2-7.2,0.2-7.2s0.7,6.7,0.3,7.6c-0.4,0.9-4.7,1.1-4.7,1.1L20.8,65.8z
		"/>
	<path class="st15" d="M19.9,54.9c-0.7,0.2,1,8.5,2.2,9c1.2,0.5,3.6-0.9,3.5-3.7s-0.7-4.7-1.4-5S19.9,54.9,19.9,54.9z"/>
	<path class="st15" d="M17.1,14.3c-0.7,0.5,0,8.5,0.5,9.5c0.5,0.9,5,0.8,5.2-2.4c0.3-3.2,0.6-6.6-0.3-7.1
		C21.8,13.8,18,13.6,17.1,14.3z"/>
	<path class="st15" d="M78,6.4c0,0-0.3,8.5,0.5,9.3c0.8,0.8,4.2,0,4.2,0s0.3-6.9-0.5-8.3C81.4,5.9,78,6.4,78,6.4z"/>
</g>
</svg>
