<?xml version="1.0" encoding="utf-8"?>
<!-- Generator: Adobe Illustrator 22.1.0, SVG Export Plug-In . SVG Version: 6.00 Build 0)  -->
<svg version="1.1" id="Layer_1" xmlns="http://www.w3.org/2000/svg" xmlns:xlink="http://www.w3.org/1999/xlink" x="0px" y="0px"
	 viewBox="0 0 24 24" style="enable-background:new 0 0 24 24;" xml:space="preserve">
<style type="text/css">
	.st0{fill:none;}
	.st1{fill:#FFFFFF;}
	.st2{fill:#FFBC26;}
	.st3{fill:#E09A1E;}
	.st4{fill:none;stroke:#E29000;stroke-miterlimit:10;}
	.st5{fill:#C4952D;}
	.st6{font-family:'AdobeMyungjoStd-Medium-KSCpc-EUC-H';}
	.st7{font-size:36.883px;}
	.st8{fill:#2D2D2D;}
</style>
<g>
	<rect x="-12.6" y="-12.6" class="st0" width="49.3" height="49.3"/>
</g>
<g>
	<path class="st1" d="M-3.1-0.9C-3.8-0.3-4.4,0-4.4,1c0,0.3,0,0.9,0.3,0.9s0.3,0,0.6-0.3C-2.2,0.6-1.2-0.6,0-1.6
		C1-2.2,2.2-2.8,2.5-3.8v-0.3c0-0.3,0-0.3,0-0.3C0.3-4.7-1.6-2.2-3.1-0.9z"/>
	<circle class="st2" cx="12" cy="12" r="20.5"/>
	<ellipse class="st3" cx="12.2" cy="12" rx="15.5" ry="15.5"/>
	<ellipse class="st4" cx="12.2" cy="12" rx="18.3" ry="18.3"/>
	<text transform="matrix(1 0 0 1 6.3652 25.4113)" class="st5 st6 st7">I</text>
	<text transform="matrix(1 0 0 1 4.25 25.4113)" class="st8 st6 st7">I</text>
	<path class="st1" d="M18.3-6C17.4-6,16.7-6,17-5c0,0.3,0.3,0.6,0.6,0.6c1.3,0.9,3.2,1.3,4.4,2.2C24-0.9,24.9,1,26.5,2.5
		c0.3,0,0.3,0.3,0.6,0.3s0.6-0.3,0.6-0.3s0-0.6,0-0.9c-0.3-1.6-1.6-2.8-2.8-3.8S22.1-4.4,20.8-5C20.5-5.3,19.3-5.7,18.3-6z"/>
	<path class="st1" d="M-1.2,26.2c0.9,0.9,1.9,1.6,3.2,2.2s2.5,1.3,3.8,1.3c0.3,0,0.6,0,0.6-0.3c0.3-0.3,0.3-0.6,0.3-0.9
		c0-0.3-0.3-0.6-0.6-0.6c-0.3-0.6-1.3-0.6-2.2-0.9c-1.9-0.6-3.5-2.2-4.7-3.8c-0.3-0.3-0.9-0.9-1.6-1.3h-0.3c0,0-0.3,0-0.3,0.3
		C-4.1,23.4-2.2,25.6-1.2,26.2z"/>
	<path class="st1" d="M11.9-0.6c-0.1,0-0.3,0.1-0.4,0.2c-0.2,0.1-0.3,0.4-0.3,0.6c0,0.2-0.1,0.4-0.1,0.5c0,0.2,0,0.4,0,0.5
		c0,1-0.1,1.9,0,2.9c0,0.2,0,0.4,0.1,0.5C11.2,4.8,11.4,5,11.6,5c0,0,0.1,0,0.1,0c0,0,0-0.1,0.1-0.1c0.2-0.5,0.2-1.1,0.2-1.6
		c0-0.4,0-0.7,0-1.1c0-0.2,0-0.5,0.1-0.7C12,1.2,12.1,1,12.2,0.8c0.2-0.3,0.4-0.5,0.6-0.7c0.3-0.2,0.7-0.3,1-0.3c0.1,0,0.3,0,0.4,0
		c0.2-0.1,0.4-0.3,0.2-0.5c-0.1-0.1-0.5-0.1-0.7-0.1C13.1-0.9,12.5-0.8,11.9-0.6z"/>
</g>
</svg>
