<?xml version="1.0" encoding="utf-8"?>
<!-- Generator: Adobe Illustrator 22.0.1, SVG Export Plug-In . SVG Version: 6.00 Build 0)  -->
<svg version="1.1" id="레이어_1" xmlns="http://www.w3.org/2000/svg" xmlns:xlink="http://www.w3.org/1999/xlink" x="0px"
	 y="0px" viewBox="0 0 100 100" style="enable-background:new 0 0 100 100;" xml:space="preserve">
<style type="text/css">
	.st0{display:none;}
	.st1{display:inline;fill:url(#SVGID_1_);}
	.st2{display:inline;fill:url(#SVGID_2_);}
	.st3{display:inline;fill:url(#SVGID_3_);}
	.st4{display:inline;fill:url(#SVGID_4_);}
	.st5{display:inline;opacity:0.2;fill:#FF4D74;enable-background:new    ;}
	.st6{display:inline;fill:url(#SVGID_5_);}
	.st7{display:inline;fill:url(#SVGID_6_);}
	.st8{display:inline;fill:url(#SVGID_7_);}
	.st9{display:inline;fill:url(#SVGID_8_);}
	.st10{display:inline;fill:url(#SVGID_9_);}
	.st11{display:inline;opacity:0.3;fill:#DE5155;enable-background:new    ;}
	.st12{display:inline;opacity:0.5;fill:#FF450C;enable-background:new    ;}
	.st13{display:inline;opacity:0.5;fill:#DE5155;enable-background:new    ;}
	.st14{display:inline;fill:#FFFFFF;}
	.st15{display:inline;fill:#FFE861;}
	.st16{display:inline;opacity:0.5;}
	.st17{opacity:0.5;fill:#E56D8D;enable-background:new    ;}
	.st18{display:inline;opacity:0.5;fill:#BE2F55;enable-background:new    ;}
	.st19{display:inline;fill:#FF450C;}
	.st20{display:inline;opacity:0.5;fill:#E52F55;enable-background:new    ;}
	.st21{display:inline;}
	.st22{fill:url(#SVGID_10_);}
	.st23{opacity:0.3;fill:#FFFFFF;enable-background:new    ;}
	.st24{fill:url(#SVGID_11_);}
	.st25{fill:url(#SVGID_12_);}
	.st26{opacity:0.5;fill:#BE2F55;enable-background:new    ;}
	.st27{fill:url(#SVGID_13_);}
	.st28{fill:#232323;}
	.st29{fill:#636363;}
	.st30{fill:#424242;}
	.st31{fill:#A3A3A3;}
	.st32{fill:#AA5339;}
	.st33{fill:none;stroke:#7A7A7A;stroke-width:2;stroke-miterlimit:10;}
	.st34{fill:#444444;}
	.st35{fill:#E0E0E0;}
	.st36{fill:#543025;}
</style>
<g class="st0">
	
		<linearGradient id="SVGID_1_" gradientUnits="userSpaceOnUse" x1="65.7501" y1="73.25" x2="97.4446" y2="73.25" gradientTransform="matrix(1 0 0 -1 0 102)">
		<stop  offset="0" style="stop-color:#FA9300"/>
		<stop  offset="0.4469" style="stop-color:#F66A00"/>
		<stop  offset="1" style="stop-color:#F63F00"/>
	</linearGradient>
	<path class="st1" d="M82.4,16c6.9-5.1,8.6,9.5,4.9,15.5c-3.5,5.7-14.6,5.3-19.1,6.3s-1.6,6.8-1.6,6.8l27.5-8.9l3.2-18.4l-9.9-4.4
		C87.6,12.9,83.8,13.7,82.4,16z"/>
	
		<linearGradient id="SVGID_2_" gradientUnits="userSpaceOnUse" x1="-711.386" y1="73.25" x2="-679.6984" y2="73.25" gradientTransform="matrix(-1 0 0 -1 -677.0488 102)">
		<stop  offset="0" style="stop-color:#FA9300"/>
		<stop  offset="0.4469" style="stop-color:#F66A00"/>
		<stop  offset="1" style="stop-color:#F63F00"/>
	</linearGradient>
	<path class="st2" d="M17.7,16c-6.9-5.1-8.6,9.5-4.9,15.5c3.5,5.7,14.6,5.3,19.1,6.3s1.6,6.8,1.6,6.8L5.9,35.7L2.6,17.3l9.9-4.4
		C12.5,12.9,16.3,13.7,17.7,16z"/>
	
		<linearGradient id="SVGID_3_" gradientUnits="userSpaceOnUse" x1="82.9952" y1="52.837" x2="82.9952" y2="90.4161" gradientTransform="matrix(1 0 0 -1 0 102)">
		<stop  offset="0" style="stop-color:#FF9600"/>
		<stop  offset="1" style="stop-color:#FFA900"/>
	</linearGradient>
	<path class="st3" d="M76.5,15.3c0,0,5-4,16.7-3.7s5.8,20,1.2,26.4c-4.4,6.2-19.9,3.5-22.8,5.1c-2.8,1.6-0.4,5.3-1.6,6
		c-1.2,0.6-4.8-3.2-3.9-6.4c0.9-3.3,17.2-5.2,23-10.5c6-5.5,4.1-16.4-1.2-17.1c-6.2-0.8-6.9,2.4-7.3,6.1c-0.4,3.6-6.3,4.5-6.3,4.5
		L76.5,15.3z"/>
	
		<linearGradient id="SVGID_4_" gradientUnits="userSpaceOnUse" x1="17.0462" y1="52.9" x2="17.0462" y2="90.4724" gradientTransform="matrix(1 0 0 -1 0 102)">
		<stop  offset="0" style="stop-color:#FF9600"/>
		<stop  offset="1" style="stop-color:#FFA900"/>
	</linearGradient>
	<path class="st4" d="M30.6,49.1L30.6,49.1c-0.2,0-0.3,0-0.4,0l0,0c-0.1,0-0.2,0-0.2-0.1c-1.2-0.7,1.2-4.4-1.6-6
		c-2.9-1.6-18.3,1.1-22.8-5.1C1,31.5-4.9,11.9,6.8,11.6c11.7-0.3,16.7,3.7,16.7,3.7l2.2,10.3c0,0-5.9-0.9-6.3-4.5
		c-0.4-3.7-1.1-6.9-7.3-6.1C6.8,15.8,4.9,26.6,11,32.1c5.8,5.3,22.1,7.2,23,10.5c0,0.1,0.1,0.3,0.1,0.4C34.4,45.8,32,48.7,30.6,49.1
		z"/>
	<path class="st5" d="M70.2,44.2c-1.5-2.2,9.2-7.2,15.2-8c6.1-0.9,7.8,1.8,7.7,2.5c0,0.6-2.1,2.9-9.5,3.5
		C76.3,42.8,72.5,41.8,70.2,44.2z"/>
	<path class="st5" d="M11.8,41.5c-7.5-3.3,7.4-4.1,13.7-2.4c6.2,1.7,5.7,5.4,5,5.5s-0.3-1.6-3-1.8S14.5,42.4,11.8,41.5z"/>
	
		<linearGradient id="SVGID_5_" gradientUnits="userSpaceOnUse" x1="2.7726" y1="89.4278" x2="23.4726" y2="89.4278" gradientTransform="matrix(1 0 0 -1 0 102)">
		<stop  offset="0" style="stop-color:#FFE834"/>
		<stop  offset="1" style="stop-color:#FFCD00"/>
	</linearGradient>
	<path class="st6" d="M2.8,12.9c5.2-4.5,19.8-2.7,19.8-2.7l0.9,5.1C23.5,15.3,8.7,9.2,2.8,12.9z"/>
	
		<linearGradient id="SVGID_6_" gradientUnits="userSpaceOnUse" x1="77.4358" y1="90.26" x2="96.3358" y2="90.26" gradientTransform="matrix(1 0 0 -1 0 102)">
		<stop  offset="0" style="stop-color:#FFCD00"/>
		<stop  offset="1" style="stop-color:#FFE834"/>
	</linearGradient>
	<path class="st7" d="M79.3,8.8c0,0,13.9-0.5,17,3.5c0,0-5.9-3-18.9,2.4L79.3,8.8z"/>
	
		<linearGradient id="SVGID_7_" gradientUnits="userSpaceOnUse" x1="22.5876" y1="58.65" x2="79.3085" y2="58.65" gradientTransform="matrix(1 0 0 -1 0 102)">
		<stop  offset="0" style="stop-color:#FF9600"/>
		<stop  offset="1" style="stop-color:#FFA900"/>
	</linearGradient>
	<path class="st8" d="M79.3,9.7c0,0-3,12.6-6,21.6c0,0.1-0.1,0.2-0.1,0.3c0,0.1-0.1,0.2-0.1,0.2c-1,3-2.1,5.5-3,6.9
		C66.6,44.2,53.5,49.9,51.9,60c-0.4,2.5,0.1,4.4,1.1,5.8c2.8,4.1,9.4,4.8,10.4,5.6c0,0,0.1,0,0.1,0.1c1.4,1.1,2.7,4.4,2.7,4.4
		S59,77,49.9,77s-16.2-1.1-16.2-1.1s1.4-3.4,2.8-4.4c1.1-0.7,8-1.5,10.8-5.8c1-1.4,1.4-3.3,1-5.6C46.7,50,33.2,44.3,29.7,38.9
		c-2-3.1-4-11.7-5.4-18.6c-1.1-5.5-1.8-9.9-1.8-9.9L50,14.8L79.3,9.7z"/>
	
		<linearGradient id="SVGID_8_" gradientUnits="userSpaceOnUse" x1="22.454" y1="94.1853" x2="79.2901" y2="94.1853" gradientTransform="matrix(1 0 0 -1 0 102)">
		<stop  offset="0" style="stop-color:#FFCD00"/>
		<stop  offset="1" style="stop-color:#FFE834"/>
	</linearGradient>
	<path class="st9" d="M23.3,7.7c6.4-7.1,38.6-11.4,53.6-1.5C94,17.3,13.4,18.6,23.3,7.7z"/>
	
		<linearGradient id="SVGID_9_" gradientUnits="userSpaceOnUse" x1="8.9453" y1="83.25" x2="49.9776" y2="83.25" gradientTransform="matrix(1.0355 -3.360000e-02 -3.240000e-02 -0.9995 23.6824 91.6295)">
		<stop  offset="0" style="stop-color:#F63F00"/>
		<stop  offset="0.5531" style="stop-color:#F66A00"/>
		<stop  offset="1" style="stop-color:#FA9300"/>
	</linearGradient>
	<path class="st10" d="M30.9,8.7c5.7,4.9,35.2,4.9,41.1-0.1c4-3.4-8.6-6.2-21.1-6.1C38.8,2.6,27.3,5.6,30.9,8.7z"/>
	<path class="st11" d="M73.1,31.9c-1,3-2.1,5.5-3,6.9C66.6,44.2,53.5,49.9,51.9,60c-0.4,2.5,0.1,4.4,1.1,5.8
		c-2.9,3.1-4.4,2.2-5.7-0.2c1-1.4,1.4-3.3,1-5.6c-1.6-10.1-15.1-15.8-18.6-21.2c-2-3.1-4-11.7-5.4-18.6l0.1-0.3
		c0,0,2.3,20.1,18.2,24.8C58.3,49.2,70.6,38.7,73.1,31.9z"/>
	<path class="st12" d="M34.6,42.1c0.6-1.4,7.8,4.4,14.1,6.2c6.3,1.9,1.2,6.1-1.1,5.5S35.9,43.5,34.6,42.1z"/>
	<path class="st13" d="M66.2,75.8c0,0-7.2,1.1-16.3,1.1s-16.2-1.1-16.2-1.1s1.4-3.4,2.8-4.4c-0.7,3,23,0.7,27.1,0.1
		C64.9,72.5,66.2,75.8,66.2,75.8z"/>
	<path class="st13" d="M53.3,76.8c-4.1-0.7-4.7-2.9-2.4-4c1.4-0.7,4.4-0.6,6.8-0.7c6.6-0.5,7.6,3.3,7.4,3.6
		C65,75.9,56.8,76.8,53.3,76.8z"/>
	<path class="st12" d="M42.5,72.9c-0.4,0-0.8,3-0.3,3.4s4.8,0.5,5.5,0.5s1.5-3.3,2.2-3.7C50.6,72.6,42.5,72.9,42.5,72.9z"/>
	<path class="st14" d="M41.3,72.6c-2.4-0.1,1.3-3.4,6.6-3.4c5.4,0,7.5,1.6,7.7,2.1C55.8,71.9,47.7,72.9,41.3,72.6z"/>
	<path class="st12" d="M27.1,12.9c-1.6-0.6-0.7,27.4,15.5,31.7s29.3-21.5,30.5-26.7c1.2-5.2-18.4-0.5-31.1-2.5
		C29.4,13.4,27.1,12.9,27.1,12.9z"/>
	<path class="st12" d="M62,3.6c-9.8,0.8-8.3,7-6.8,8.1c1.4,1.2,14.4-1.4,16.4-4.1C73.4,5.1,62,3.6,62,3.6z"/>
	<path class="st14" d="M62,3.6c-4,0.8,0.8,4.3,2.7,4.2c2-0.1,4-2.8,2.6-3.2C65.8,4.3,62,3.6,62,3.6z"/>
	<path class="st5" d="M88,12.3c-0.7,0.7,4.3,2.9,5.7,9.7c1.3,6.9,6,0.9,5.8-4.1C99.2,12.8,93.1,11.2,88,12.3z"/>
	<path class="st5" d="M1.1,22.3c0.3,4.5,3.5,6.6,4.1,6.5s-0.5-11.2,7.2-15c3.3-1.6-9-1.1-10.2,0C1.1,14.9,0.8,17.9,1.1,22.3z"/>
	<path class="st14" d="M32,16.4c-2.8,1.3,0.4,5.3,1.7,5.1C35,21.2,34.7,15,32,16.4z"/>
	<path class="st15" d="M26.1,12.6c0,0,26.3,3.8,43.9,1.1C70.1,13.7,45.3,17.9,26.1,12.6z"/>
	<g class="st16">
		<path class="st17" d="M72.9,24.9c0,0.3-0.1,0.5-0.3,0.8c-1.1,2.3-4.8,5-6.9,3.9c-0.7-0.4-1.1-0.9-1.2-1.6l0,0
			c-0.5-2.4,1.8-6.3,3.2-8.6C69.6,16.3,73.4,22.4,72.9,24.9z"/>
		<path class="st17" d="M63.2,32.1c-0.1,0.7-0.3,1.6-0.6,2.6c-0.7,2.3-2.9,0.6-3.5-1.2c-0.1-0.3-0.2-0.6-0.2-0.9c0-2,2-3.7,3.7-2.8
			C63.2,30.1,63.4,30.9,63.2,32.1z"/>
		<path class="st17" d="M72.9,24.9c0,0.3-0.1,0.5-0.3,0.8h-0.2c0,0,0.1-0.7-0.5-2.7c-0.7-2-2.4-4.3-4.3-2.6s-3.1,7.4-3.1,7.6
			c-0.5-2.4,1.8-6.3,3.2-8.6C69.6,16.3,73.4,22.4,72.9,24.9z"/>
		<path class="st17" d="M63.2,32.1c0,0-1.4-2.5-2.8-2C59,30.7,59,33.5,59,33.5c-0.1-0.3-0.2-0.6-0.2-0.9c0-2,2-3.7,3.7-2.8
			C63.2,30.1,63.4,30.9,63.2,32.1z"/>
	</g>
	<path class="st13" d="M75.1,25.4c0,0,3.2-1.6,4.8-4.3s-1.1-9.6-1.1-9.6L75.1,25.4z"/>
	<path class="st13" d="M22.9,12c0,0-0.5,2.4-1,2.7s-2.7,4.8-1.6,7.4s5.4,3.5,5.4,3.5S23.6,17.7,22.9,12z"/>
	<path class="st18" d="M7.3,22.1c0.5,4.7,1.9,5.3,2.9,5c1-0.3-0.5-10.1,4.4-12.2C14.5,14.9,7.5,14.4,7.3,22.1z"/>
	<path class="st18" d="M86.9,15.2c0.1,0.6,3.8,5.4,3.8,10.2s3.1-4.9,0.6-8C88.7,14.3,86.9,15.2,86.9,15.2z"/>
	<path class="st19" d="M10.5,32.7c-2.4-0.5,1.5,5.3,6.2,5.5s6.2,0,6.2,0S11.9,32.9,10.5,32.7z"/>
	<path class="st19" d="M80.5,36.5c0,0,8.2-0.1,10.2-1.1c1.9-1,2.1-4.9,1.6-5.1s-2.4,2-6.1,3.8C82.4,35.9,80.5,36.5,80.5,36.5z"/>
	<path class="st14" d="M83,12.9c-1.3,0.3-0.9-2.2,2.9-2.6c3.1-0.3,4.3,1.3,4.3,1.3S88.6,11.5,83,12.9z"/>
	<path class="st14" d="M12.2,12.1c-1.6-1,10.4-0.7,6.8,1.6C19,13.7,15.9,12.6,12.2,12.1z"/>
	<path class="st14" d="M42.5,72.9c-2.1-0.2,1.6-2.6,4.3-1.5C49.5,72.4,47.4,73.3,42.5,72.9z"/>
	<path class="st14" d="M83.3,35.5c-0.3,0.4,2.9,0.3,3.7-1.2C87.8,32.8,83.9,34.6,83.3,35.5z"/>
	<path class="st14" d="M20.3,36.8c0.1,0.6-4.6-0.4-4.4-1.3C16,34.5,20.2,36.1,20.3,36.8z"/>
	<path class="st20" d="M66,42.6c3.1-2.6,2.6,6.1,2.6,6.1S65.1,45.6,66,42.6z"/>
	<path class="st20" d="M30.6,49.1L30.6,49.1c-0.2,0-0.3,0-0.4,0l0,0c-0.2-1,1.8-7,3.8-6.1C34.4,45.8,32,48.7,30.6,49.1z"/>
	<path class="st18" d="M30.2,7.6c0.2-1.7,8.8-4.9,14.1-3.9s10.1,7.2,9.8,7.9S32.9,12.8,30.2,7.6z"/>
	<path class="st13" d="M55.6,50.8c-2,0.1-4.5-2.2-2.9-3.5c2.6-2.2,11.2-4.4,14.2-7.2c4.8-4.5,4.8-4.5,4.8-4.5s-1.1,3.3-5,6.7
		C62.7,45.6,56.6,50.7,55.6,50.8z"/>
	<g class="st21">
		
			<linearGradient id="SVGID_10_" gradientUnits="userSpaceOnUse" x1="50.8968" y1="43.4719" x2="50.8968" y2="69.3966" gradientTransform="matrix(1 0 0 -0.9565 0 84.9328)">
			<stop  offset="4.189940e-02" style="stop-color:#EF6300"/>
			<stop  offset="1" style="stop-color:#E13E00"/>
		</linearGradient>
		<path class="st22" d="M62.9,30.5c0.2,7-5.1,12.8-12,12.8s-12.3-5.9-12-12.8c0.2-6.7,5.6-11.9,12-11.9
			C57.2,18.6,62.6,23.8,62.9,30.5z"/>
		<path class="st23" d="M39.8,34.9c1.1-4.5,21.5-7.5,22.6-6.4c1.1,1.2-1.3,13.7-11.2,13.8C41.2,42.4,39.5,36.1,39.8,34.9z"/>
		
			<linearGradient id="SVGID_11_" gradientUnits="userSpaceOnUse" x1="50.2" y1="62.7696" x2="50.2" y2="79.7356" gradientTransform="matrix(1 0 0 -1 0 102)">
			<stop  offset="0" style="stop-color:#FF9600"/>
			<stop  offset="1" style="stop-color:#FFA900"/>
		</linearGradient>
		<path class="st24" d="M46.5,26.2c0,0,1.4,0.1,2.6-3.1c0,0,2.2-1.2,4.4-0.7l0.4,16.8h-5.1l-0.4-9.8l-1.9-0.2V26.2z"/>
		
			<linearGradient id="SVGID_12_" gradientUnits="userSpaceOnUse" x1="46.4588" y1="77.871" x2="53.4163" y2="77.871" gradientTransform="matrix(1 0 0 -1 0 102)">
			<stop  offset="0" style="stop-color:#FFCD00"/>
			<stop  offset="1" style="stop-color:#FFE834"/>
		</linearGradient>
		<path class="st25" d="M46.5,26.2l0.2-0.6c0,0,1.8-0.8,2.1-2.9c0,0,2.9-1.3,4.7-0.2c0,0-2.2-0.4-4.2,0.7
			C49.2,23.1,48.4,26,46.5,26.2z"/>
		<path class="st26" d="M38.8,30.5c0,0,2.7-10.5,12.4-10.5c9.2,0,11.4,8.1,11.4,8.1s-1.6-9.9-12.1-9.6S38.7,29.4,38.8,30.5z"/>
		
			<linearGradient id="SVGID_13_" gradientUnits="userSpaceOnUse" x1="40.5" y1="61.9995" x2="62" y2="61.9995" gradientTransform="matrix(1 0 0 -1 0 102)">
			<stop  offset="0" style="stop-color:#FFCD00"/>
			<stop  offset="1" style="stop-color:#FFE834"/>
		</linearGradient>
		<path class="st27" d="M40.5,37.4c0,0,3.5,6.3,11.1,5.9C59.1,43,62,35.5,62,35.5s-3.5,9-10.8,9C43.9,44.6,40.5,37.4,40.5,37.4z"/>
	</g>
</g>
<g>
	<path class="st28" d="M11.9,83.4h77.7c0,0,16.5-73.4-39.2-73.4C50.5,10-0.2,8.1,11.9,83.4z"/>
	<path class="st29" d="M18.3,85.4H3.6c-2,0-3.6-1.6-3.6-3.6v-8.5c0-2,1.6-3.6,3.6-3.6h14.7c2,0,3.6,1.6,3.6,3.6v8.5
		C21.9,83.8,20.3,85.4,18.3,85.4z"/>
	<path class="st29" d="M96.4,85.4H81.7c-2,0-3.6-1.6-3.6-3.6v-8.5c0-2,1.6-3.6,3.6-3.6h14.7c2,0,3.6,1.6,3.6,3.6v8.5
		C100,83.8,98.4,85.4,96.4,85.4z"/>
	<path class="st29" d="M17.4,50.9L3.8,48.7c-1.7-0.3-2.9-1.9-2.6-3.6l1.1-6.7c0.3-1.7,1.9-2.9,3.6-2.6L19.6,38
		c1.7,0.3,2.9,1.9,2.6,3.6l-1.1,6.7C20.8,50.1,19.1,51.2,17.4,50.9z"/>
	<path class="st29" d="M60.1,15.8l3.8-8.7c0.6-1.4,2.2-2,3.6-1.4l7,3c1.4,0.6,2,2.2,1.4,3.6L72.2,21c-0.6,1.4-2.2,2-3.6,1.4l-7-3
		C60.1,18.8,59.5,17.2,60.1,15.8z"/>
	<path class="st29" d="M20,36.4L8.1,29.5c-1.5-0.9-2-2.8-1.2-4.3l3.4-5.9c0.9-1.5,2.8-2,4.3-1.2l12,6.9c1.5,0.9,2,2.8,1.2,4.3
		l-3.4,5.9C23.5,36.7,21.5,37.2,20,36.4z"/>
	<path class="st29" d="M16.7,68.2H5.2c-1.8,0-3.3-1.5-3.3-3.3v-9.1c0-1.8,1.5-3.3,3.3-3.3h11.6c1.8,0,3.3,1.5,3.3,3.3v9.1
		C20,66.7,18.5,68.2,16.7,68.2z"/>
	<path class="st29" d="M82.6,50.9l13.6-2.2c1.7-0.3,2.9-1.9,2.6-3.6l-1.1-6.7c-0.3-1.7-1.9-2.9-3.6-2.6L80.4,38
		c-1.7,0.3-2.9,1.9-2.6,3.6l1.1,6.7C79.2,50.1,80.8,51.2,82.6,50.9z"/>
	<path class="st29" d="M83.3,68.2h11.6c1.8,0,3.3-1.5,3.3-3.3v-9.1c0-1.8-1.5-3.3-3.3-3.3H83.3c-1.8,0-3.3,1.5-3.3,3.3v9.1
		C80,66.7,81.5,68.2,83.3,68.2z"/>
	<path class="st29" d="M27.7,23.4l-7-9.2c-1.1-1.4-0.8-3.5,0.6-4.6L28.6,4c1.4-1.1,3.5-0.8,4.6,0.6l7,9.2c1.1,1.4,0.8,3.5-0.6,4.6
		L32.3,24C30.8,25.1,28.8,24.8,27.7,23.4z"/>
	<path class="st29" d="M74,22.1L84.3,17c1.6-0.8,3.6-0.2,4.4,1.5l4.1,8.2c0.8,1.6,0.2,3.6-1.5,4.4L81,36.2c-1.6,0.8-3.6,0.2-4.4-1.5
		l-4.1-8.2C71.7,24.9,72.4,23,74,22.1z"/>
	<path class="st29" d="M42.8,14.8V3.3c0-1.8,1.5-3.3,3.3-3.3h9.1c1.8,0,3.3,1.5,3.3,3.3v11.6c0,1.8-1.5,3.3-3.3,3.3h-9.1
		C44.2,18.1,42.8,16.7,42.8,14.8z"/>
	<path class="st30" d="M20.8,74.2c0,0,0.8,8.8-1,10C18,85.4,3.1,84.7,3.1,84.7s-3.8-2.4,1.4-2.4s12.9,0.9,13.7-1
		c0.7-1.9,0.3-7.5-0.2-7.7C17.4,73.3,18,69.5,20.8,74.2z"/>
	<path class="st30" d="M17.4,60.7c0,0,0.5,5-13.3,4.1c0,0-3.5,0.4,0.9,2.1s13-0.2,13.8-1.4c0,0,0.9-4.6,0.4-6.6
		C18.7,57,17.4,60.7,17.4,60.7z"/>
	<path class="st30" d="M2.7,46.6c0,0,13,3.8,16,2.7S21,44,21,44s-0.8-3.8-2,2.1S3.7,44.6,3.7,44.6S0.9,44.8,2.7,46.6z"/>
	<path class="st30" d="M7.7,26.9c0,0,11.8,9.2,13.6,9.1c0,0,3.1-2.4,4.7-7.7l0.7-2.1L25.1,26l-0.9,0.6c0,0-0.6,0.8-0.9,1.3
		c-0.3,0.4-0.9,1.4-0.9,1.8s0,0.8-0.2,1.4c-0.1,0.6-0.4,1.3-0.6,1.6c-0.2,0.2-0.4,0.4-1.5,0.4s-2.1-0.3-2.7-1s-1.4-0.8-1.2-1.6
		c0.1-0.8,0.1-1-0.3-1.5c-0.5-0.5-2.2-1.7-2.3-1.7s-0.4-0.2-1.3-0.4c-0.8-0.2-1-0.2-1.5-0.2c-0.4,0-1.3,0-1.6,0
		c-0.4,0-1.1,0.3-1.1,0.3L7.7,26.9z"/>
	<path class="st30" d="M31.9,23c0,0-0.1-0.1-0.3,0c-0.2,0.1-0.9,0.2-0.9,0.2h-0.8h-0.6c0,0-0.5-0.4-0.6-0.6s-0.6-0.3-0.8-1
		c-0.2-0.7-0.2-1.6-0.2-1.6s-0.1-0.2,0-0.4c0.1-0.1,0.4-0.2,0.5-0.3c0.1,0,0.4,0,0.8,0.2s0.8,0.2,0.9,0.3c0.1,0,0.5,0,0.8,0
		s0.4,0,0.8-0.1s0.8-0.4,1.2-0.5c0.4,0,0.5-0.1,0.8-0.3c0.3-0.2,0.1,0,0.8-0.3s0.7-0.4,1.3-0.6c0.7-0.2,1.1-0.4,1.6-0.8
		c0.4-0.3,0.6,0,0.7-0.7s0.3-0.1,0-1.6c-0.3-1.6-0.4-2.2-0.9-2.5s-1.1-0.4-1.2-1s-0.1-1.2-0.1-1.2V10c0,0,0.1-0.1,0.4,0
		c0.3,0.1,2.2,1,2.3,1.2s0.5,1.2,0.5,1.2s0.1,0.5,0.4,0.9s0.3,0.8,0.4,1c0.1,0.3-0.2,0.3,0,0.6c0.2,0.2,0.8,1.4,0.6,1.7
		c-0.2,0.3-0.8,0.7-0.8,0.7s-0.5,0.2-0.8,0.4c-0.2,0.2-1,0.8-1,0.8S37,19,36.8,19.1s-0.7,0.5-1,0.8c-0.4,0.3-0.5,0.8-0.7,0.9
		c-0.1,0.1-0.6,0.5-0.6,0.8s0.2,0.1-0.3,0.5C33.3,22.4,31.9,23,31.9,23z"/>
	<path class="st30" d="M44.7,6.8c0,0-0.6,3.2-0.6,3.5c0,0.2,0.2,1,0.3,1.1s0.3,1.4,0.3,1.6c0,0.2-0.1,1,0,1.2c0.1,0.1,0,0.3,0.2,0.6
		s0.2,0.4,0.4,0.8s0.4,0.6,0.5,0.7c0.1,0,0.5,0.2,0.7,0.3c0.1,0.1,1.1,0.3,1.1,0.3s1.2,0.2,1.5,0.2s1.5-0.1,1.8,0s0.6,0.2,1.3,0
		s1.1-0.4,1.6-0.4s1.4,0.1,1.4,0.1l0.8-0.1c0.1,0,0.4-0.6,0.5-0.8s0.4-0.8,0.5-1.1c0.2-0.4,0.6,0,0.2-0.4S56.8,14,56.6,14
		c-0.2,0.1-0.6,0.3-1.1,0.6s-1.1,0.3-1.6,0.5s-1.4,0.4-2.2,0.4s-1.8-0.1-2-0.1s-1.2-0.2-1.6-0.4c-0.5-0.1-1-0.4-1-0.5
		s0.2,0.5-0.1-1.1s-0.5-0.8-0.5-2.6s-0.2-2.3,0-2.5c0.1-0.3,0.1-0.9,0.3-1.6C46.9,6,47.2,5.3,47.4,5c0.1-0.3,0.3-1,0.3-1.3
		S47.2,2.2,47.1,2c-0.1-0.2-0.6-0.4-0.8-0.5s-0.7-0.3-0.9,0s-0.6,0.6-1,1.8S44,5.1,44,5.6s0.1,1,0.2,1.4C44.3,7.4,44.7,6.8,44.7,6.8
		z"/>
	<path class="st30" d="M65.6,8.1c0,0-0.4,0.6-1.4,1.7s-1.9,2.7-1.9,2.7s-0.6,1.3-0.7,1.5c-0.1,0.3-0.2,0.9-0.2,1s-0.3-0.1,0,0.6
		c0.3,0.8,0.5,1.1,0.7,1.4s0.6,0.9,0.7,1c0.2,0.1,0.3,0.4,0.6,0.6s0.7,0.4,0.9,0.5c0.2,0.1,2.2,0.5,2.2,0.5s0.4,0.3,0.6,0.5
		c0.2,0.1,0.8,0.6,1.1,0.8c0.2,0.1,0.7,0.4,0.7,0.5c0.1,0.1,0.2,0.2,0.5,0.2s1.2-0.8,1.4-0.9c0.1-0.1,0.4-0.8,0.4-0.8s0-0.5,0-0.6
		c0-0.2,0.6-0.1-0.3-0.6s-1.4-0.6-1.4-0.6s-0.2,0-0.6,0s-0.8,0-0.8,0s-0.9-0.1-1.6-0.2s-1.7-0.3-1.9-0.5c-0.2-0.2-0.7-0.1-0.7-0.4
		s-0.3-0.6-0.1-1s-0.2-0.2,0.2-1c0.5-0.8,0.4-1,0.6-1s0.2,0,0.6-0.5c0.3-0.4,0.4-0.4,0.6-1.2s0.1-1.4,0.2-1.6s0.1,0.1,0.1-0.2
		s0-0.7,0-0.7s0-0.4-0.1-0.7s-0.3-0.6-0.3-0.6L65.6,8.1z"/>
	<path class="st30" d="M74.1,26.1c0,0,1.9,2.2,2,2.4c0,0.2,0.1,0.4,0.4,1.1s0.2,1,0.4,1.4c0.2,0.4,0.2,0.6,0.6,1.2
		c0.4,0.6,0.3,0.7,0.4,1c0.1,0.2,0.2,0.5,0.3,0.5c0.1,0.1,0,0.2,0.5,0.2s1.1,0.2,1.5,0.2s1.1,0.1,1.2,0s1.1-0.4,1.5-0.5
		s0.7-0.2,1.3-0.7c0.6-0.5,0.9-1,1.7-1.4c0.8-0.4,1.9-0.9,2.2-1.1s0.8-0.6,1.1-1c0.2-0.4,0.3-0.8,0.2-0.9c-0.1-0.1-0.1-0.5-1.4-0.1
		s-2.9,1.5-3.4,2s-0.8,0.5-1.6,0.7s-1.6,0.3-1.9,0.4c-0.3,0-1,0.2-1.2-0.1c-0.2-0.2-0.2-0.5-0.5-1.2s-0.4-1-0.3-1.8
		c0.1-0.7,1-1.3-0.1-2.1s-2-0.9-2-1.4s0.1-0.9,0.5-1.3c0.4-0.5,0.5-1,1.3-1.6s1.8-0.9,2.2-1.1s0.8-0.7,0.2-0.7c-0.6,0-0.6-0.3-1.4,0
		s-1.2,0.5-1.4,0.7c-0.1,0.2-0.8,0.5-1.2,1.1c-0.4,0.6-0.4,0.5-1.1,1s-0.8,0.6-1.2,0.8c-0.3,0.2-0.8,0.4-0.8,0.6s0.1,0.7,0,0.8
		C74,25.5,74.1,26.1,74.1,26.1z"/>
	<path class="st30" d="M79.9,40.3c0,0-0.1,0.4,0,1.3s0.6,3.8,0.6,3.8s0.3,0.6,0.3,0.8s-0.2,0.8-0.2,1.2c0,0.3-0.2,1-0.2,1
		s0.6,0.3,0.9,0.4s1.1,0.4,1.4,0.4s1.8,0.6,2,0.6c0.1,0,0.3,0,1.8-0.2s3.3-0.7,4-0.9c0.6-0.2,1.9-0.6,2.4-0.9
		c0.4-0.3,1.3-0.2,1.6-0.5c0.3-0.2,1.4-0.6,1.4-1.2C95.7,45.6,96,45.3,95,45s-3.3-0.4-3.4-0.2s-2.9,1.5-3.3,1.8
		c-0.3,0.3-1.6,0.4-2.4,0.5s-1.7,0.2-2.2,0S83,46.8,83,46.3s0.2-1.7,0.3-2.2s0.1-1.1,0.1-1.6s-0.3-0.8,0.7-1.4
		c1.1-0.6,2.2-1.1,2.2-1.4c0.1-0.3,0.4-0.6,0-0.7c-0.4-0.1-2.4-0.5-3.7-0.2c-1.3,0.3-2,0.6-2,0.6l-0.8,0.7L79.9,40.3z"/>
	<path class="st30" d="M95.9,54.5c0,0-0.1-0.2,0,0.4c0.1,0.6-0.2,2.3-0.2,2.6c0,0.4,0.1,0.8-0.4,1.6s-0.5,1-0.5,1.7s0.7,1.4,0.5,1.7
		s0,0.5,0,1.2s0.2,1.7,0,1.8s-0.1,0.1-0.3,0.3c-0.1,0.2-0.8,0.7-1.1,0.8s-1.2-0.1-1.6,0s-1.9,0.1-2.2,0c-0.3-0.1-0.8-0.1-1.2-0.1
		c-0.3,0-2.8,0.3-3.2,0.2s-1.3,0.1-1.7,0c-0.4-0.1-0.7,0.4-1.1,0.2c-0.4-0.2-1.7-1.7-1.7-1.9s0.1-0.5,0.6-0.9
		c0.4-0.4,1.2-1.3,2.5-0.9s2.6,0.2,3.2,0.5s2.1,0.9,2.5,0.7c0.4-0.1,1.2-0.6,1.8-0.4c0.6,0.2,1-0.3,1-0.5s0-0.4,0.1-0.8
		c0.1-0.5,0.2-2.4,0-2.9c-0.3-0.5-0.1-1.4-0.1-2s0.1-1.5,0.5-1.7s1.4-0.7,1.4-0.8s0-0.2,0-0.4s-0.3-0.4,0.3-0.4S95.9,54.5,95.9,54.5
		z"/>
	<path class="st30" d="M95.8,73.2c0,0,0.2-0.1,0.2,0.4c0,0.2-0.1,0.4-0.2,0.7c-0.4,1.2-0.7,2.6-0.5,3.3c0.2,0.8,0.6,1.1-0.1,1.9
		c-0.6,0.8-1.9,1.1-3.6,1.5s-2.8,0.4-3.8,0.3S85.4,81,84.3,81s-2.3-0.1-2.5,0.3c-0.1,0.5-0.4,1.4,0,1.8s0.1,0.8,1.3,1
		s6.4,0.1,6.8,0.1s-1.3,0.3,3-0.4s5.4-0.8,5.4-0.8l0.3-0.2c0,0,0.6-1.3-0.3-3s-0.8-3-0.6-3.8s0.3-1.9,0.3-2.1s-0.9-1.6-0.9-1.6
		L95.8,73.2z"/>
	<path class="st31" d="M10.2,74H9c0,0-0.4,1.3-0.5,1.8s0.2,1.8,0.3,2.1s0,0.4-0.1,0.9S8,79.4,7.6,79.5s-1.3,0.2-1.8,0
		s-1.5-0.6-1.9-1c-0.4-0.3-1.1-0.8-1.6-1.7S0.9,74.4,1,74s0.3-1.1,0.5-1.3S1,71.9,2.9,71.9s3.6-0.2,4,0s1.6,0.8,1.8,0.9
		s1.3,0.9,1.3,0.9L10.2,74z"/>
	<path class="st31" d="M14.1,60.4c0,0,1.6-1.8,1.6-2.4c0.1-0.6,0-1.2,0-1.2s0.5-0.5-0.8-1.1s-1.5-1.1-4.7-0.6s-4.5,0.8-4.6,0.6
		s-0.3-1.6-0.3-1.6s0.6-0.2,1.9-0.4c1.3-0.1,3.8-0.2,4.4-0.4c0.6-0.1,2.8-0.6,3.8-0.4s2.1,0.9,2.3,1.1c0.2,0.1,1.1,1.2,1.1,1.6
		s0,1,0,1.5s-0.6,1.3-0.6,1.3s-0.5,0.3-0.9,0.5c-0.4,0.1-0.7,0.7-1.2,0.9c-0.4,0.3-1,0.6-1,0.6S14.1,60.4,14.1,60.4z"/>
	<path class="st31" d="M15.4,47c0,0,0.1,0.1,0.4-0.4s0.9-1.1,1-1.3s0.5-1.4,0.4-2s-0.7-1.3-0.9-1.5c-0.1-0.3-0.8-0.9,0.3-1.1
		c1.1-0.2,1.8-0.4,1.8-0.4s1.2-0.4,1.6-0.3c0.3,0.1,0.8,0.3,1.1,0.6c0.3,0.4-0.2,0.8,0,1.8c0.2,0.9,0.2,0.5,0.1,1.1
		C21,44,21,44,21,44s-0.2,1-0.4,1.3c-0.2,0.3-2,0.7-2.3,0.8s-1.2,0.3-1.2,0.3s-0.4,0.1-0.8,0.1S15.4,47,15.4,47z"/>
	<path class="st31" d="M24.3,24.9c0,0-0.8-0.8-1.8-1c-0.9-0.2-2.3-0.5-2.7-0.7c-0.4-0.1-2.5-1.6-2.9-1.8c-0.3-0.3-1.4-1.3-1.9-1.5
		s-0.3-0.4-0.7-0.2c-0.3,0.2-0.6,0.9-0.7,1.4c0,0.5-0.1,1.4,0.7,2.6s2.1,1.7,3.4,2.2c1.3,0.5,2.8,0.6,3,0.8c0.1,0.1,0.8,1.3,0.9,1.5
		s0.2,0.8,0.5,0.9s1.9-0.1,2.2-0.2s1.1-0.1,1.6-0.2s1.3-1.3,1.2-1.5c-0.1-0.2,0.3-0.6-0.4-1C25.9,25.9,24.3,24.9,24.3,24.9z"/>
	<path class="st31" d="M33.6,21.6c0,0-0.2,0.2-1.3,0.4c-1,0.1-2.2-0.1-2.9-0.4c-0.7-0.2-1.2-0.7-1.6-1.6s-1.1-1.6-1.6-2.1
		s-2-2.3-2-2.8s-0.6-1.3,0.3-1.9s0.6-1.8,2.6-1.1s2.9,1.6,3.1,2.4s-1.5-0.8,0.3,1.6c1.8,2.4,2,2.7,2.2,2.8c0.2,0.1,0.3,0.1,1.2,0.7
		s0.9,1.2,0.9,1.2l-0.3,0.4l-0.6,0.4H33.6z"/>
	<path class="st31" d="M52.7,14.5c0,0,1.7-0.7,2-1s0.5-1.5,0.7-2.2s0.4-1.4,0.4-1.8c0-0.4,0.3-0.2,0-1.4s-0.4-1.8-0.9-2.3
		S52.3,5,52,3.6c-0.3-1.4,0-2.3,0.7-2.2s3.1,0.1,3.2,0s1.5,8.6,1.5,8.6s0.1,1.8,0,2.1s-0.1,1.2-0.5,1.6c-0.4,0.3-0.6,0.8-0.6,0.8
		S52.7,14.5,52.7,14.5z"/>
	<path class="st31" d="M68.8,7.7c-0.1-0.1-0.3-0.6-0.8,0s-1.2,1.5-0.4,2.3c0.8,0.8,0.5,0.7,2.3,1.4s2.1,2.1,2,2.6s-0.7,1.7-0.5,2
		c0.2,0.3,2-1.8,2-1.8s0.3,0,0.5-0.5c0.3-0.4,0.8-1.4,0.8-1.7s0-1.1,0-1.1L74.3,10c0,0-0.3-0.1-0.9-0.4c-0.6-0.3-1.3-0.6-2-0.8
		s-2-0.7-2.3-0.9S68.8,7.7,68.8,7.7z"/>
	<path class="st31" d="M83.7,20.7l-1,3.5l1.3,1c0,0,1,0.8,1.1,1s0,0.6,0.2,1s2.7,0.5,3.2,0.5s2.5-0.5,2.5-0.5s0.5,0.8,0-0.7
		s-1.2-2.7-1.2-2.7s-1-1.3-1.1-1.5s-0.9-2.4-0.9-2.4s-0.5-1.9-0.8-2s-2.4,0.4-2.8,1C83.8,19.7,83.4,20.3,83.7,20.7z"/>
	<path class="st31" d="M92.8,40.3c0,0-0.3-0.2-0.7,0c-0.4,0.2-0.4,1.9-0.4,2.1c0,0.2,0.4,0.9-0.5,1.3c-0.8,0.3-1.4,1.1-1.5,1.2
		c-0.1,0.1,5.8,2.3,5.8,2.3l2.2-2.9c0,0,0.5-1.3,0-1.8s-0.3-3.2-0.8-3.7c-0.4-0.5-0.8-1.1-1.6-1.3c-0.8-0.2-1.3-1.1-2.3,0.9
		s-0.9,2.5-0.9,2.5L92.8,40.3z"/>
	<g>
		<path class="st32" d="M48.3,84.3h5.9V20.5c-1-0.1-2-0.2-3-0.2c0,0-1.1,0-2.9,0.1V84.3z"/>
		<path class="st32" d="M55.5,84.3h5.9V22.2c-1.8-0.7-3.7-1.2-5.9-1.5V84.3z"/>
		<path class="st32" d="M68.6,26.9c-1.6-1.6-3.5-3.1-5.9-4.2v61.6h5.9V26.9z"/>
		<path class="st32" d="M39.7,22.6c-2.1,0.9-4.2,2.1-6.1,3.8v57.9h6.1V22.6z"/>
		<path class="st32" d="M47,20.6c-1.7,0.2-3.8,0.7-5.9,1.5v62.2H47V20.6z"/>
		<path class="st32" d="M76.1,43.4c-0.1-0.9-0.9-8.7-6.1-15v55.9h4c1.2,0,2.2-1,2.2-2.2L76.1,43.4C76.1,43.5,76.1,43.4,76.1,43.4z"
			/>
		<path class="st32" d="M32.4,27.8c-3.1,3.4-5.3,8.4-5.3,15.6l-0.8,38.7c0,1.2,1,2.2,2.2,2.2h4V27.8H32.4z"/>
	</g>
	<path class="st31" d="M93.5,59c-0.5-0.2-0.9-0.4-1.6,0s-0.6,0.6-1.1,0.6s-1.5,0.1-2.1,0s-2.3-1.3-2.4-1.5c-0.1-0.1-0.9-0.5,0.6-1.6
		c1.6-1.1,3.9-1.8,4-1.8s1.4-0.3,1.7-0.3c0.4,0,1.8-0.2,1.8-0.2s1.2,1.3,1.5,2s-0.6,1.1-0.2,3.2c0.4,2.1,1.1,2.1,0.4,2.1
		s-0.6-0.2-1.3-0.8c-0.7-0.6-1-0.9-1-0.9v-0.4L93.5,59z"/>
	<path class="st31" d="M94.3,72.4c-0.1-0.1-0.2-0.2-0.4-0.3c-0.7-0.4-1.8-0.7-3.2-0.4c-1.7,0.4-3.6,1.6-3.6,2.4s1.4,1.8,2,1.8
		s3,0,3.3,0.1s0.6,0.4,0.7,0.9s0.2,1.2,0.9,1.3s1.8,0.5,2.8,0s0.9-1.8,1.4-2.5s0-2.6-0.6-3s-0.2-0.5-1.6-0.5"/>
	<circle class="st33" cx="65.5" cy="60.2" r="5.1"/>
	<path class="st34" d="M70.2,59.7c0,0-0.4,4.1-3.2,4.8l-1.5,0.2c0,0-0.6,0.1-0.8,0c-0.2-0.1-0.7-0.3-1-0.3s-0.5-0.2-0.5-0.2
		s-0.3-0.1-0.4,0.1c-0.1,0.2-0.1,0.3-0.1,0.5c0,0.1,0.6,0.6,0.8,0.6s0.6,0.1,0.8,0.1c0.3,0,0.7,0.1,1,0.1c0.3,0.1,0.8-0.1,1.1,0
		c0.3,0.1,0.9,0.1,1.3-0.1s0.8-0.4,0.9-0.5c0.1,0,0-0.2,0.4-0.4c0.4-0.2,0.6-0.3,0.9-0.4s1.3-3,1.3-3s0.1-1,0.1-1.1s0-0.4,0-0.4
		l-0.5-0.3c0,0-0.1,0.1-0.2,0.1s-0.2,0.1-0.2,0.1L70.2,59.7z"/>
	<path class="st35" d="M60.4,60.4c0,0-0.2,1.1-0.1,1.2c0,0.1,0.1,0.6,0.1,0.7c0.1,0.1-0.1,0.5,0,0.7c0.1,0.1,0.1,0.3,0.2,0.5
		C60.7,63.7,61,64,61,64s0.9,1.1,1.3,1.2s1.6,0.1,1.6,0.1c0.1,0-0.1-0.2,0-0.3c0.1-0.1-0.5-0.4-0.6-0.4c-0.1-0.1-0.3-0.2-0.3-0.2
		l-0.4-0.3c0,0-0.1,0.2-0.3-0.2c-0.2-0.5-0.1-0.6-0.3-0.7c0-0.2-0.1-0.2-0.1-0.4s-0.1-0.6-0.2-1c-0.1-0.4-0.2-0.8-0.2-0.9
		c0-0.1,0-0.5,0-0.7s0-0.4,0-0.4s-0.2-0.1-0.3-0.1s-0.2,0.1-0.3,0.1S60.4,60.4,60.4,60.4z"/>
	<path class="st35" d="M70,57.7l-0.3,0.2V59c0,0,0.2-0.1,0.1,0.3c-0.1,0.5-0.2,1,0,1.1s-0.5,0.1,0.1,0.2c0.6,0.1,0.8,0.1,0.8,0.1
		l0.2-0.1c0,0-0.1-0.5,0-0.6s0-0.3,0-0.6c0-0.2,0.2-0.4,0-0.6c-0.1-0.2-0.4-0.4-0.4-0.6c0-0.1-0.2-0.3-0.2-0.3H70L70,57.7z"/>
	<path class="st36" d="M35.4,82.4c0,0,0.5-2.4,0.5-3.3s0.3-2.2,0.4-2.4c0.1-0.3,0.6-0.8,0.4-1.8s-0.1-2.8,0-4s0.6-8.8,0.6-9.1
		s0-0.6,0-0.6s0.5,1.8,0.5,1.9c0,0.1-0.1,1.2,0,1.4c0.1,0.2-0.2,2.5-0.2,2.8s0.1,3.2,0.3,4s0,0,0,1.9s0.1,2.3,0.1,2.5
		c-0.1,0.2-0.3,1-0.5,1.6c-0.1,0.6,0-0.3-0.1,1.3c-0.1,1.6-0.2,1.7-0.2,1.9c0,0.2,0.1,0.4,0,0.5c-0.2,0.1-0.1,0.7-0.4,0.8
		s-0.5,0.6-0.5,0.6S35.4,82.4,35.4,82.4z"/>
	<path class="st36" d="M24.8,61.2"/>
	<path class="st36" d="M50.7,38c0,0-0.4,0-0.5,0.8s-0.3,0.7,0,2.8s0.4,5.4,0,6.4c-0.4,0.9,0.3,3.3,0.2,4.6s-0.3,3.4-0.2,3.8
		c0.1,0.4,0.6,1.2,0.5,2.1c-0.1,0.9,0.2,4.8,0,5.3s-1.1,1.4-1.1,1.6s1.3-0.1,1.6-1.2s0.4-1.5,0.7-2.1c0.4-0.6,0.4-2.4,0.4-2.6
		c0-0.2-0.4-2.3-0.4-2.7s-0.1-2.3-0.1-3.2s0.1-1.4,0-1.8c-0.1-0.4-0.8-1.2-0.9-2.5c-0.1-1.3-0.1-2.3,0.2-3s0.3-1.2,0.4-2.7
		s-0.4-1.9-0.4-2.5s-0.2-1.3-0.2-1.6C51,39,50.7,38,50.7,38z"/>
	<path class="st36" d="M50.6,82.4c0,0,0.2-0.2,0.4-0.6c0.3-0.5,0.8-1.1,0.8-1.3c0.1-0.4,1-1.3,0.5-2.5s-0.7-1.6-1.1-2.2
		c-0.5-0.6-0.5-1.3-0.7-1.6c-0.1-0.3,0.4-1.2,0.7-1.2s0.5,1.4,0.7,2.2c0.3,0.7,0.4,1.1,0.4,1.1c0.1,0.5,0.6,2.2,0.6,2.4
		c0,0.2,0,1.4,0,1.6c0,0.3,0.6,0.8,0,1.1c-0.6,0.3-1.1,0.5-1.1,0.5L50.6,82.4z"/>
	<path class="st36" d="M35.9,48c0,0,0-0.2,0.1-0.4c0-0.3,0.1-0.9,0.1-1.4c0-0.6,0-1.3-0.2-1.9c-0.4-1.5,0.2-7.5,0.2-7.5
		s0.6-3.2,0.6-4c0-0.7-0.9-2.1-0.9-2.1s-0.5-1.6-0.4-2c0-0.3,0.8-1.4,1.2-1.9c0.1-0.1,0.2-0.2,0.2-0.2s-0.6-1.3,0,1.8
		s1.2,4.8,1.2,5.5s-0.2,1.5-0.4,2.6s-0.9,2.7-0.9,4.1c0,1.4-0.5,2.9-0.3,3.7s0.2,0.8,0.2,0.8l-0.5,2.1L35.9,48z"/>
	<path class="st36" d="M42.2,23.2v1.2c0,0-0.1,1.5,0,1.9s0,0.9,0,0.9l0.4-1.3v-1.6c0,0,1.6-0.8,1.3-1.2c-0.2-0.4-0.5-0.6-0.5-0.6
		s-0.4-0.2-0.7,0C42.5,22.8,42.2,23.2,42.2,23.2z"/>
	<path class="st36" d="M48.9,21.6c0,0,0.6,1.7,0.7,2c0.1,0.4,0,1.2,0,1.2s-0.4,2.3-0.4,2.9s0,1.9,0,1.9s0.3-0.6,0.7-1.3s-0.4-3,0-4
		s0.5-1.4,0.5-1.4L50,22L48.9,21.6z"/>
	<path class="st36" d="M45.3,22.6v1.7c0,0-0.4,0.9-0.6,1.6c-0.3,0.7-0.7,2.4-0.7,2.4s0.3,2.1,0.7,4.2S45,38,45,38.6
		c0,0.7,0.3-6.1,0.3-6.6c0-0.5,0-1.4,0-1.4s-0.1-1-0.3-1.6s0.2-1.3,0.3-1.8s-0.3-1,0-1.3s0.6-2.7,0.6-2.7L45.3,22.6z"/>
	<path class="st36" d="M72.1,47c0,0,0.4,0.8,0.8,2c0.2,0.7,0.4,1.5,0.4,2.4c0.1,2.4,0,6.4,0,6.4s-0.1,2.8,0,3.4
		c0.1,0.6,0,2.8-0.3,4.7c-0.1,0.4-0.2,0.7-0.3,1.1c-0.6,1.9-0.4,3.7-0.6,4.2s0,2.8,0,2.8s2.2,0.6,1.9-0.4c-0.2-0.9,0-3.6,0-3.6
		s0.7-8.9,0.7-10.7s0.1-3.4,0-4.9s-0.5-3-0.7-3.5S72.1,47,72.1,47z"/>
	<path class="st36" d="M66.8,81.7c-0.1,0.1-0.5,0.3-0.5,0.3s-1.4,0.6-1.2-1.4S67,77.3,67,77s-0.8-3-1.1-4.4
		c-0.3-1.5,0.1-1.3,0.1-1.3s-0.7,0.6-1,0.8c-0.3,0.2,0,0.8,0,1.2s-0.1,0.6,0,1.3c0.1,0.8-1.1,1-0.9,3.8s0.1,3.3,0.2,3.5
		c0.1,0.3,0.4,0.6,0.6,0.9s0.7,0.3,0.7,0.3s0.8-0.2,0.9-0.3s0.5-1,0.5-1h-0.2V81.7z"/>
	<path class="st36" d="M28.3,81.6c0,0-0.3,1-0.3,0.4c0-0.3,0.1-0.8,0.3-1.9c0.6-3.6,1-4.2,1-4.6s-0.1-2.3-0.5-3.7
		c-0.4-1.4-0.5-4.6-0.5-4.9s0.6-4.5,0.6-4.5l0.4-2.1c0,0,1.3,0.9,0.6,2.1s-0.6,2-0.6,2.8s-0.2,0.7,0,1.7s0,2.4,0.2,2.8
		s0.1,1.1,0.6,2.6s0.5,2.7,0.5,2.7s0.1,0.6,0.1,1.7s-0.6,2.8-0.7,2.9c-0.1,0.2-0.1,0.3-0.1,0.7c0,0.4,0.4,1.5,0.4,1.5l0.4,0.6
		c0,0,0.6,0.8-0.4,0.7c-0.9-0.1-1.3,0-1.3,0L28.3,81.6z"/>
	<path class="st36" d="M30.8,49.5l-0.7-9.1l0.7-2.4l-0.7-0.8c0,0-0.3-1-0.7,0c-0.4,1-0.6,0.7-0.6,1.6s0,1.5-0.1,1.8
		c-0.1,0.4,0.1,0.8,0,1.1c-0.1,0.4,0.7,2.2,0.7,2.8s-0.7,2.6-0.7,2.6s0.3,1.5,0,1.9s0,1.1,0,1.1l0.6-1.7c0,0,0.5-1.2,0.4-1.2
		c-0.1-0.1-0.1-0.1-0.1-0.1s0.9,0.4,0.8,0.6c-0.2,0.2-0.1,0.4,0,0.9c0.1,0.6,0.1,0.6,0.1,0.6L30.8,49.5z"/>
	<path class="st36" d="M65.3,28.4c0.3,1.2,1.1,1.3,1.1,1.3v-0.8L65.7,28v-0.7l-0.1-0.7L64.8,26C64.8,26,65,27.2,65.3,28.4z"/>
	<path class="st36" d="M56.7,22.6c0,0,0,1.2,0,1.5c0,0.4-0.4,3.3-0.3,3.7c0.1,0.4,0.6,0.4,0.6,1.3s0,2.4,0,2.4s1-0.7,1-1.3
		s0-2.8,0-2.8s0-0.8,0-1s0-1.7,0-1.7l0.5-0.5c0,0,0.4-0.4,0-0.8s-0.9-0.8-0.9-0.8s-0.1,0-0.5-0.1C56.7,22.6,56.7,22.6,56.7,22.6z"/>
	<path class="st36" d="M59.3,23.2c0,0,0.3,0.9,0.3,1.2c0,0.3,0,1.4,0,1.9s-0.1,1.5-0.1,1.5l0.5,0.6c0,0,0.4-0.7,0.3-1.1
		c-0.1-0.4,0-1.4,0-1.4v-0.6c0,0,0.1-0.8,0.2-0.8c0.1,0,0-0.6,0-0.6L59.3,23.2z"/>
	<path class="st36" d="M43,83.6l-0.4-0.1c0,0-1.1,0.8-0.2-0.8c0.9-1.6,0.5-3.1,0.6-3.4s-0.2-1.8-0.2-2s0.8-0.1,0.7,0.3
		s-0.2,0.7-0.1,0.9c0.1,0.2,0.4,1,0.3,1.2c-0.1,0.2-0.1,0.8-0.1,1c-0.1,0.2,0,0.2-0.2,0.7s-0.2,0.8-0.2,1c0,0.1,1.1,1,1.2,0.7
		c0.1-0.3,0.4-1,0.7-1.4c0.3-0.3,0.5-1.1,0.5-1.6s-0.1-1.7-0.2-1.8s-0.1-0.4,0.2-0.2c0.3,0.2,0.7,0.8,0.6,1.2s-0.4,1.7-0.7,2.3
		s-0.2,0.3-0.5,1s-0.4,0.7-0.4,0.8S43,83.6,43,83.6z"/>
</g>
</svg>
