<?xml version="1.0" encoding="utf-8"?>
<!-- Generator: Adobe Illustrator 22.0.1, SVG Export Plug-In . SVG Version: 6.00 Build 0)  -->
<svg version="1.1" id="레이어_1" xmlns="http://www.w3.org/2000/svg" xmlns:xlink="http://www.w3.org/1999/xlink" x="0px"
	 y="0px" viewBox="0 0 100 100" style="enable-background:new 0 0 100 100;" xml:space="preserve">
<style type="text/css">
	.st0{fill:#2B0038;}
	.st1{fill:#46056D;}
	.st2{opacity:0.2;fill:#FFFFFF;}
	.st3{fill:#BF77D8;}
	.st4{fill:url(#SVGID_1_);}
	.st5{fill:url(#SVGID_2_);}
	.st6{fill:url(#SVGID_3_);}
	.st7{fill:url(#SVGID_4_);}
	.st8{opacity:0.2;fill:#FF4D74;}
	.st9{fill:url(#SVGID_5_);}
	.st10{fill:url(#SVGID_6_);}
	.st11{fill:url(#SVGID_7_);}
	.st12{fill:url(#SVGID_8_);}
	.st13{fill:url(#SVGID_9_);}
	.st14{opacity:0.3;fill:#DE5155;}
	.st15{opacity:0.5;fill:#FF450C;}
	.st16{opacity:0.5;fill:#DE5155;}
	.st17{fill:#FFFFFF;}
	.st18{fill:#FFE861;}
	.st19{opacity:0.5;}
	.st20{opacity:0.5;fill:#E56D8D;}
	.st21{opacity:0.5;fill:#BE2F55;}
	.st22{fill:#FF450C;}
	.st23{opacity:0.5;fill:#E52F55;}
	.st24{fill:url(#SVGID_10_);}
	.st25{opacity:0.3;fill:#FFFFFF;}
	.st26{fill:url(#SVGID_11_);}
	.st27{fill:url(#SVGID_12_);}
	.st28{fill:url(#SVGID_13_);}
</style>
<g>
	<path class="st0" d="M72.3,99.7H27.7c-13.4,0-24.3-10.9-24.3-24.3V30.9c0-13.4,10.9-24.3,24.3-24.3h44.5
		c13.4,0,24.3,10.9,24.3,24.3v44.5C96.6,88.8,85.7,99.7,72.3,99.7z"/>
	<path class="st1" d="M96.6,27.2v44.5c0,4.5-1.2,8.7-3.3,12.3c0,0,0,0.1-0.1,0.1c0,0-0.1,0.1-0.1,0.2c0,0,0,0,0,0.1s0,0,0,0.1
		c-0.4,0.6-0.8,1.3-1.3,1.8c-0.8,1.1-1.9,2.4-3.4,3.7c-4.3,3.8-9.9,6.1-16,6.1H27.7c-8.3,0-15.6-4.2-20-10.5c0,0,0,0,0-0.1
		C5,81.6,3.4,76.8,3.4,71.7V27.2c0-13.4,10.9-24.3,24.3-24.3h44.5C85.7,2.9,96.6,13.8,96.6,27.2z"/>
	<path class="st2" d="M5.8,82.1c0.5-21.2,30.1,6,49.6,6c19.5,0,28.6-21.4,36.3-18.3c7.7,3.1-0.4,20.6-14.4,24.4
		c-13.9,3.7-48.1,2-56.8,0.7S5.8,82.1,5.8,82.1z"/>
	<path class="st3" d="M93.2,84.1c0,0.1-0.1,0.1-0.1,0.2c0,0,0,0,0,0.1c-0.2,0.4-0.7,1.1-1.3,1.8c-0.8,1.1-1.9,2.4-3.4,3.7
		c-4.3,3.8-9.9,6.1-16,6.1H27.7c-8.3,0-15.6-4.2-20-10.5c0,0,0,0,0-0.1c-0.2-0.4-0.3-0.6-0.3-0.7c0.7,0.5,14.2,11,46.1,11
		c29.7,0,38.2-9.7,39.5-11.6C93.1,84.2,93.1,84.1,93.2,84.1z"/>
</g>
<g>
	<linearGradient id="SVGID_1_" gradientUnits="userSpaceOnUse" x1="65.7501" y1="28.76" x2="97.4446" y2="28.76">
		<stop  offset="0" style="stop-color:#FA9300"/>
		<stop  offset="0.4469" style="stop-color:#F66A00"/>
		<stop  offset="1" style="stop-color:#F63F00"/>
	</linearGradient>
	<path class="st4" d="M82.4,16c6.9-5.1,8.6,9.5,4.9,15.5c-3.5,5.7-14.6,5.3-19.1,6.3c-4.5,1-1.6,6.8-1.6,6.8l27.5-8.9l3.2-18.4
		l-9.9-4.4C87.6,12.9,83.8,13.7,82.4,16z"/>
	
		<linearGradient id="SVGID_2_" gradientUnits="userSpaceOnUse" x1="186.614" y1="28.76" x2="218.3016" y2="28.76" gradientTransform="matrix(-1 0 0 1 220.9512 0)">
		<stop  offset="0" style="stop-color:#FA9300"/>
		<stop  offset="0.4469" style="stop-color:#F66A00"/>
		<stop  offset="1" style="stop-color:#F63F00"/>
	</linearGradient>
	<path class="st5" d="M17.7,16c-6.9-5.1-8.6,9.5-4.9,15.5c3.5,5.7,14.6,5.3,19.1,6.3c4.5,1,1.6,6.8,1.6,6.8L5.9,35.7L2.6,17.3
		l9.9-4.4C12.5,12.9,16.3,13.7,17.7,16z"/>
	<linearGradient id="SVGID_3_" gradientUnits="userSpaceOnUse" x1="82.9575" y1="49.1349" x2="82.9575" y2="11.5524">
		<stop  offset="0" style="stop-color:#FF9600"/>
		<stop  offset="1" style="stop-color:#FFA900"/>
	</linearGradient>
	<path class="st6" d="M76.5,15.3c0,0,5-4,16.7-3.7c11.7,0.3,5.8,20,1.2,26.4c-4.4,6.2-19.9,3.5-22.8,5.1c-2.8,1.6-0.4,5.3-1.6,6
		c-1.2,0.6-4.8-3.2-3.9-6.4c0.9-3.3,17.2-5.2,23-10.5c6-5.5,4.1-16.4-1.2-17.1c-6.2-0.8-6.9,2.4-7.3,6.1c-0.4,3.6-6.3,4.5-6.3,4.5
		L76.5,15.3z"/>
	<linearGradient id="SVGID_4_" gradientUnits="userSpaceOnUse" x1="17.0461" y1="49.1285" x2="17.0461" y2="11.5561">
		<stop  offset="0" style="stop-color:#FF9600"/>
		<stop  offset="1" style="stop-color:#FFA900"/>
	</linearGradient>
	<path class="st7" d="M30.6,49.1L30.6,49.1c-0.2,0-0.3,0-0.4,0h0c-0.1,0-0.2,0-0.2-0.1c-1.2-0.7,1.2-4.4-1.6-6
		c-2.9-1.6-18.3,1.1-22.8-5.1C1,31.5-4.9,11.9,6.8,11.6c11.7-0.3,16.7,3.7,16.7,3.7l2.2,10.3c0,0-5.9-0.9-6.3-4.5
		c-0.4-3.7-1.1-6.9-7.3-6.1C6.8,15.8,4.9,26.6,11,32.1c5.8,5.3,22.1,7.2,23,10.5c0,0.1,0.1,0.3,0.1,0.4C34.4,45.8,32,48.7,30.6,49.1
		z"/>
	<path class="st8" d="M70.2,44.2c-1.5-2.2,9.2-7.2,15.2-8c6.1-0.9,7.8,1.8,7.7,2.5c0,0.6-2.1,2.9-9.5,3.5
		C76.3,42.8,72.5,41.8,70.2,44.2z"/>
	<path class="st8" d="M11.8,41.5c-7.5-3.3,7.4-4.1,13.7-2.4c6.2,1.7,5.7,5.4,5,5.5c-0.7,0.1-0.3-1.6-3-1.8
		C24.8,42.6,14.5,42.4,11.8,41.5z"/>
	<linearGradient id="SVGID_5_" gradientUnits="userSpaceOnUse" x1="2.7726" y1="12.5841" x2="23.4928" y2="12.5841">
		<stop  offset="0" style="stop-color:#FFE834"/>
		<stop  offset="1" style="stop-color:#FFCD00"/>
	</linearGradient>
	<path class="st9" d="M2.8,12.9c5.2-4.5,19.8-2.7,19.8-2.7l0.9,5.1C23.5,15.3,8.7,9.2,2.8,12.9z"/>
	<linearGradient id="SVGID_6_" gradientUnits="userSpaceOnUse" x1="77.4358" y1="11.7582" x2="96.3298" y2="11.7582">
		<stop  offset="0" style="stop-color:#FFCD00"/>
		<stop  offset="1" style="stop-color:#FFE834"/>
	</linearGradient>
	<path class="st10" d="M79.3,8.8c0,0,13.9-0.5,17,3.5c0,0-5.9-3-18.9,2.4L79.3,8.8z"/>
	<linearGradient id="SVGID_7_" gradientUnits="userSpaceOnUse" x1="22.5876" y1="43.3021" x2="79.3085" y2="43.3021">
		<stop  offset="0" style="stop-color:#FF9600"/>
		<stop  offset="1" style="stop-color:#FFA900"/>
	</linearGradient>
	<path class="st11" d="M79.3,9.7c0,0-3,12.6-6,21.6c0,0.1-0.1,0.2-0.1,0.3c0,0.1-0.1,0.2-0.1,0.2c-1,3-2.1,5.5-3,6.9
		C66.6,44.2,53.5,49.9,51.9,60c-0.4,2.5,0.1,4.4,1.1,5.8c2.8,4.1,9.4,4.8,10.4,5.6c0,0,0.1,0,0.1,0.1c1.4,1.1,2.7,4.4,2.7,4.4
		s-7.2,1.1-16.3,1.1c-9.1,0-16.2-1.1-16.2-1.1s1.4-3.4,2.8-4.4c1.1-0.7,8-1.5,10.8-5.8c1-1.4,1.4-3.3,1-5.6
		c-1.6-10.1-15.1-15.8-18.6-21.2c-2-3.1-4-11.7-5.4-18.6c-1.1-5.5-1.8-9.9-1.8-9.9l27.5,4.4L79.3,9.7z"/>
	<linearGradient id="SVGID_8_" gradientUnits="userSpaceOnUse" x1="22.4436" y1="7.8093" x2="79.3006" y2="7.8093">
		<stop  offset="0" style="stop-color:#FFCD00"/>
		<stop  offset="1" style="stop-color:#FFE834"/>
	</linearGradient>
	<path class="st12" d="M23.3,7.7c6.4-7.1,38.6-11.4,53.6-1.5C94,17.3,13.4,18.6,23.3,7.7z"/>
	
		<linearGradient id="SVGID_9_" gradientUnits="userSpaceOnUse" x1="38.8257" y1="4.4" x2="79.8218" y2="4.4" gradientTransform="matrix(1.0355 -3.360000e-02 3.240000e-02 0.9995 -10.1095 4.9914)">
		<stop  offset="0" style="stop-color:#F63F00"/>
		<stop  offset="0.5531" style="stop-color:#F66A00"/>
		<stop  offset="1" style="stop-color:#FA9300"/>
	</linearGradient>
	<path class="st13" d="M30.9,8.7c5.7,4.9,35.2,4.9,41.1-0.1c4-3.4-8.6-6.2-21.1-6.1C38.8,2.6,27.3,5.6,30.9,8.7z"/>
	<path class="st14" d="M73.1,31.9c-1,3-2.1,5.5-3,6.9C66.6,44.2,53.5,49.9,51.9,60c-0.4,2.5,0.1,4.4,1.1,5.8
		c-2.9,3.1-4.4,2.2-5.7-0.2c1-1.4,1.4-3.3,1-5.6c-1.6-10.1-15.1-15.8-18.6-21.2c-2-3.1-4-11.7-5.4-18.6l0.1-0.3
		c0,0,2.3,20.1,18.2,24.8C58.3,49.2,70.6,38.7,73.1,31.9z"/>
	<path class="st15" d="M34.6,42.1c0.6-1.4,7.8,4.4,14.1,6.2c6.3,1.9,1.2,6.1-1.1,5.5C45.3,53.2,35.9,43.5,34.6,42.1z"/>
	<path class="st16" d="M66.2,75.8c0,0-7.2,1.1-16.3,1.1c-9.1,0-16.2-1.1-16.2-1.1s1.4-3.4,2.8-4.4c-0.7,3,23,0.7,27.1,0.1
		C64.9,72.5,66.2,75.8,66.2,75.8z"/>
	<path class="st16" d="M53.3,76.8c-4.1-0.7-4.7-2.9-2.4-4c1.4-0.7,4.4-0.6,6.8-0.7c6.6-0.5,7.6,3.3,7.4,3.6
		C65,75.9,56.8,76.8,53.3,76.8z"/>
	<path class="st15" d="M42.5,72.9c-0.4,0-0.8,3-0.3,3.4s4.8,0.5,5.5,0.5c0.7,0,1.5-3.3,2.2-3.7C50.6,72.6,42.5,72.9,42.5,72.9z"/>
	<path class="st17" d="M41.3,72.6c-2.4-0.1,1.3-3.4,6.6-3.4c5.4,0,7.5,1.6,7.7,2.1C55.8,71.9,47.7,72.9,41.3,72.6z"/>
	<path class="st15" d="M27.1,12.9c-1.6-0.6-0.7,27.4,15.5,31.7c16.2,4.3,29.3-21.5,30.5-26.7c1.2-5.2-18.4-0.5-31.1-2.5
		C29.4,13.4,27.1,12.9,27.1,12.9z"/>
	<path class="st15" d="M62,3.6c-9.8,0.8-8.3,7-6.8,8.1c1.4,1.2,14.4-1.4,16.4-4.1C73.4,5.1,62,3.6,62,3.6z"/>
	<path class="st17" d="M62,3.6c-4,0.8,0.8,4.3,2.7,4.2c2-0.1,4-2.8,2.6-3.2C65.8,4.3,62,3.6,62,3.6z"/>
	<path class="st8" d="M88,12.3c-0.7,0.7,4.3,2.9,5.7,9.7c1.3,6.9,6,0.9,5.8-4.1C99.2,12.8,93.1,11.2,88,12.3z"/>
	<path class="st8" d="M1.1,22.3c0.3,4.5,3.5,6.6,4.1,6.5c0.6-0.1-0.5-11.2,7.2-15c3.3-1.6-9-1.1-10.2,0C1.1,14.9,0.8,17.9,1.1,22.3z
		"/>
	<path class="st17" d="M32,16.4c-2.8,1.3,0.4,5.3,1.7,5.1C35,21.2,34.7,15,32,16.4z"/>
	<path class="st18" d="M26.1,12.6c0,0,26.3,3.8,43.9,1.1C70.1,13.7,45.3,17.9,26.1,12.6z"/>
	<g class="st19">
		<path class="st20" d="M72.9,24.9c0,0.3-0.1,0.5-0.3,0.8c-1.1,2.3-4.8,5-6.9,3.9c-0.7-0.4-1.1-0.9-1.2-1.6c0,0,0,0,0,0
			c-0.5-2.4,1.8-6.3,3.2-8.6C69.6,16.3,73.4,22.4,72.9,24.9z"/>
		<path class="st20" d="M63.2,32.1c-0.1,0.7-0.3,1.6-0.6,2.6c-0.7,2.3-2.9,0.6-3.5-1.2c-0.1-0.3-0.2-0.6-0.2-0.9c0-2,2-3.7,3.7-2.8
			C63.2,30.1,63.4,30.9,63.2,32.1z"/>
		<path class="st20" d="M72.9,24.9c0,0.3-0.1,0.5-0.3,0.8l-0.2,0c0,0,0.1-0.7-0.5-2.7c-0.7-2-2.4-4.3-4.3-2.6
			c-1.9,1.7-3.1,7.4-3.1,7.6c-0.5-2.4,1.8-6.3,3.2-8.6C69.6,16.3,73.4,22.4,72.9,24.9z"/>
		<path class="st20" d="M63.2,32.1c0,0-1.4-2.5-2.8-2c-1.4,0.6-1.4,3.4-1.4,3.4c-0.1-0.3-0.2-0.6-0.2-0.9c0-2,2-3.7,3.7-2.8
			C63.2,30.1,63.4,30.9,63.2,32.1z"/>
	</g>
	<path class="st16" d="M75.1,25.4c0,0,3.2-1.6,4.8-4.3s-1.1-9.6-1.1-9.6L75.1,25.4z"/>
	<path class="st16" d="M22.9,12c0,0-0.5,2.4-1,2.7s-2.7,4.8-1.6,7.4c1.1,2.6,5.4,3.5,5.4,3.5S23.6,17.7,22.9,12z"/>
	<path class="st21" d="M7.3,22.1c0.5,4.7,1.9,5.3,2.9,5c1-0.3-0.5-10.1,4.4-12.2C14.5,14.9,7.5,14.4,7.3,22.1z"/>
	<path class="st21" d="M86.9,15.2c0.1,0.6,3.8,5.4,3.8,10.2c0,4.8,3.1-4.9,0.6-8C88.7,14.3,86.9,15.2,86.9,15.2z"/>
	<path class="st22" d="M10.5,32.7c-2.4-0.5,1.5,5.3,6.2,5.5c4.7,0.2,6.2,0,6.2,0S11.9,32.9,10.5,32.7z"/>
	<path class="st22" d="M80.5,36.5c0,0,8.2-0.1,10.2-1.1c1.9-1,2.1-4.9,1.6-5.1c-0.5-0.2-2.4,2-6.1,3.8
		C82.4,35.9,80.5,36.5,80.5,36.5z"/>
	<path class="st17" d="M83,12.9c-1.3,0.3-0.9-2.2,2.9-2.6c3.1-0.3,4.3,1.3,4.3,1.3S88.6,11.5,83,12.9z"/>
	<path class="st17" d="M12.2,12.1c-1.6-1,10.4-0.7,6.8,1.6C19,13.7,15.9,12.6,12.2,12.1z"/>
	<path class="st17" d="M42.5,72.9c-2.1-0.2,1.6-2.6,4.3-1.5C49.5,72.4,47.4,73.3,42.5,72.9z"/>
	<path class="st17" d="M83.3,35.5c-0.3,0.4,2.9,0.3,3.7-1.2C87.8,32.8,83.9,34.6,83.3,35.5z"/>
	<path class="st17" d="M20.3,36.8c0.1,0.6-4.6-0.4-4.4-1.3C16,34.5,20.2,36.1,20.3,36.8z"/>
	<path class="st23" d="M66,42.6c3.1-2.6,2.6,6.1,2.6,6.1S65.1,45.6,66,42.6z"/>
	<path class="st23" d="M30.6,49.1L30.6,49.1c-0.2,0-0.3,0-0.4,0h0c-0.2-1,1.8-7,3.8-6.1C34.4,45.8,32,48.7,30.6,49.1z"/>
	<path class="st21" d="M30.2,7.6c0.2-1.7,8.8-4.9,14.1-3.9s10.1,7.2,9.8,7.9S32.9,12.8,30.2,7.6z"/>
	<path class="st16" d="M55.6,50.8c-2,0.1-4.5-2.2-2.9-3.5c2.6-2.2,11.2-4.4,14.2-7.2c4.8-4.5,4.8-4.5,4.8-4.5s-1.1,3.3-5,6.7
		C62.7,45.6,56.6,50.7,55.6,50.8z"/>
	<g>
		
			<linearGradient id="SVGID_10_" gradientUnits="userSpaceOnUse" x1="50.8066" y1="38.1083" x2="50.8066" y2="12.1836" gradientTransform="matrix(1 0 0 0.9565 0 6.9013)">
			<stop  offset="4.189940e-02" style="stop-color:#EF6300"/>
			<stop  offset="1" style="stop-color:#E13E00"/>
		</linearGradient>
		<path class="st24" d="M62.9,30.5c0.2,7-5.1,12.8-12,12.8c-6.9,0-12.3-5.9-12-12.8c0.2-6.7,5.6-11.9,12-11.9
			C57.2,18.6,62.6,23.8,62.9,30.5z"/>
		<path class="st25" d="M39.8,34.9c1.1-4.5,21.5-7.5,22.6-6.4c1.1,1.2-1.3,13.7-11.2,13.8C41.2,42.4,39.5,36.1,39.8,34.9z"/>
		<linearGradient id="SVGID_11_" gradientUnits="userSpaceOnUse" x1="50.1443" y1="39.2304" x2="50.1443" y2="22.2644">
			<stop  offset="0" style="stop-color:#FF9600"/>
			<stop  offset="1" style="stop-color:#FFA900"/>
		</linearGradient>
		<path class="st26" d="M46.5,26.2c0,0,1.4,0.1,2.6-3.1c0,0,2.2-1.2,4.4-0.7l0.4,16.8h-5.1l-0.4-9.8l-1.9-0.2V26.2z"/>
		<linearGradient id="SVGID_12_" gradientUnits="userSpaceOnUse" x1="46.4588" y1="24.076" x2="53.4163" y2="24.076">
			<stop  offset="0" style="stop-color:#FFCD00"/>
			<stop  offset="1" style="stop-color:#FFE834"/>
		</linearGradient>
		<path class="st27" d="M46.5,26.2l0.2-0.6c0,0,1.8-0.8,2.1-2.9c0,0,2.9-1.3,4.7-0.2c0,0-2.2-0.4-4.2,0.7
			C49.2,23.1,48.4,26,46.5,26.2z"/>
		<path class="st21" d="M38.8,30.5c0,0,2.7-10.5,12.4-10.5c9.2,0,11.4,8.1,11.4,8.1s-1.6-9.9-12.1-9.6C40,18.8,38.7,29.4,38.8,30.5z
			"/>
		<linearGradient id="SVGID_13_" gradientUnits="userSpaceOnUse" x1="40.5179" y1="40.0376" x2="62.0133" y2="40.0376">
			<stop  offset="0" style="stop-color:#FFCD00"/>
			<stop  offset="1" style="stop-color:#FFE834"/>
		</linearGradient>
		<path class="st28" d="M40.5,37.4c0,0,3.5,6.3,11.1,5.9C59.1,43,62,35.5,62,35.5s-3.5,9-10.8,9C43.9,44.6,40.5,37.4,40.5,37.4z"/>
	</g>
</g>
</svg>
