<?xml version="1.0" encoding="utf-8"?>
<!-- Generator: Adobe Illustrator 22.0.1, SVG Export Plug-In . SVG Version: 6.00 Build 0)  -->
<svg version="1.1" id="레이어_1" xmlns="http://www.w3.org/2000/svg" xmlns:xlink="http://www.w3.org/1999/xlink" x="0px"
	 y="0px" viewBox="0 0 100 100" style="enable-background:new 0 0 100 100;" xml:space="preserve">
<style type="text/css">
	.st0{fill:#2B0038;}
	.st1{fill:#46056D;}
	.st2{opacity:0.2;fill:#FFFFFF;}
	.st3{fill:#BF77D8;}
	.st4{display:none;}
	.st5{display:inline;fill:url(#SVGID_1_);}
	.st6{display:inline;fill:url(#SVGID_2_);}
	.st7{display:inline;fill:url(#SVGID_3_);}
	.st8{display:inline;fill:url(#SVGID_4_);}
	.st9{display:inline;opacity:0.2;fill:#FF4D74;}
	.st10{display:inline;fill:url(#SVGID_5_);}
	.st11{display:inline;fill:url(#SVGID_6_);}
	.st12{display:inline;fill:url(#SVGID_7_);}
	.st13{display:inline;fill:url(#SVGID_8_);}
	.st14{display:inline;fill:url(#SVGID_9_);}
	.st15{display:inline;opacity:0.3;fill:#DE5155;}
	.st16{display:inline;opacity:0.5;fill:#FF450C;}
	.st17{display:inline;opacity:0.5;fill:#DE5155;}
	.st18{display:inline;fill:#FFFFFF;}
	.st19{display:inline;fill:#FFE861;}
	.st20{display:inline;opacity:0.5;}
	.st21{opacity:0.5;fill:#E56D8D;}
	.st22{display:inline;opacity:0.5;fill:#BE2F55;}
	.st23{display:inline;fill:#FF450C;}
	.st24{display:inline;opacity:0.5;fill:#E52F55;}
	.st25{display:inline;}
	.st26{fill:url(#SVGID_10_);}
	.st27{opacity:0.3;fill:#FFFFFF;}
	.st28{fill:url(#SVGID_11_);}
	.st29{fill:url(#SVGID_12_);}
	.st30{opacity:0.5;fill:#BE2F55;}
	.st31{fill:url(#SVGID_13_);}
	.st32{display:inline;fill:#232323;}
	.st33{display:inline;fill:#636363;}
	.st34{display:inline;fill:#424242;}
	.st35{display:inline;fill:#A3A3A3;}
	.st36{fill:#AA5339;}
	.st37{display:inline;fill:none;stroke:#7A7A7A;stroke-width:2;stroke-miterlimit:10;}
	.st38{display:inline;fill:#444444;}
	.st39{display:inline;fill:#E0E0E0;}
	.st40{display:inline;fill:#543025;}
	.st41{fill:#FFFFFF;}
	.st42{fill:#BABABA;}
	.st43{fill:#FFC933;}
	.st44{fill:#FF571D;}
	.st45{opacity:0.42;fill:#FFFFFF;}
	.st46{display:inline;opacity:0.25;}
	.st47{fill:url(#SVGID_14_);}
	.st48{fill:url(#SVGID_15_);}
	.st49{fill:url(#SVGID_16_);}
	.st50{opacity:0.3;fill:#D42F55;}
	.st51{fill:url(#SVGID_17_);}
	.st52{fill:#8D001A;}
	.st53{fill:url(#SVGID_18_);}
	.st54{fill:url(#SVGID_19_);}
	.st55{fill:url(#SVGID_20_);}
	.st56{fill:url(#SVGID_21_);}
	.st57{fill:url(#SVGID_22_);}
	.st58{fill:#9F001A;}
	.st59{fill:url(#SVGID_23_);}
	.st60{fill:url(#SVGID_24_);}
	.st61{opacity:0.5;fill:#FF6D55;}
	.st62{fill:url(#SVGID_25_);}
	.st63{fill:url(#SVGID_26_);}
	.st64{fill:url(#SVGID_27_);}
	.st65{fill:url(#SVGID_28_);}
	.st66{opacity:0.2;fill:#E02774;}
	.st67{fill:#FF9CA1;}
</style>
<g>
	<path class="st0" d="M72.3,99.7H27.7c-13.4,0-24.3-10.9-24.3-24.3V30.9c0-13.4,10.9-24.3,24.3-24.3h44.5
		c13.4,0,24.3,10.9,24.3,24.3v44.5C96.6,88.8,85.7,99.7,72.3,99.7z"/>
	<path class="st1" d="M96.6,27.2v44.5c0,4.5-1.2,8.7-3.3,12.3c0,0,0,0.1-0.1,0.1c0,0-0.1,0.1-0.1,0.2c0,0,0,0,0,0.1s0,0,0,0.1
		c-0.4,0.6-0.8,1.3-1.3,1.8c-0.8,1.1-1.9,2.4-3.4,3.7c-4.3,3.8-9.9,6.1-16,6.1H27.7c-8.3,0-15.6-4.2-20-10.5c0,0,0,0,0-0.1
		C5,81.6,3.4,76.8,3.4,71.7V27.2c0-13.4,10.9-24.3,24.3-24.3h44.5C85.7,2.9,96.6,13.8,96.6,27.2z"/>
	<path class="st2" d="M5.8,82.1c0.5-21.2,30.1,6,49.6,6c19.5,0,28.6-21.4,36.3-18.3c7.7,3.1-0.4,20.6-14.4,24.4
		c-13.9,3.7-48.1,2-56.8,0.7S5.8,82.1,5.8,82.1z"/>
	<path class="st3" d="M93.2,84.1c0,0.1-0.1,0.1-0.1,0.2c0,0,0,0,0,0.1c-0.2,0.4-0.7,1.1-1.3,1.8c-0.8,1.1-1.9,2.4-3.4,3.7
		c-4.3,3.8-9.9,6.1-16,6.1H27.7c-8.3,0-15.6-4.2-20-10.5c0,0,0,0,0-0.1c-0.2-0.4-0.3-0.6-0.3-0.7c0.7,0.5,14.2,11,46.1,11
		c29.7,0,38.2-9.7,39.5-11.6C93.1,84.2,93.1,84.1,93.2,84.1z"/>
</g>
<g class="st4">
	<linearGradient id="SVGID_1_" gradientUnits="userSpaceOnUse" x1="65.7501" y1="28.76" x2="97.4446" y2="28.76">
		<stop  offset="0" style="stop-color:#FA9300"/>
		<stop  offset="0.4469" style="stop-color:#F66A00"/>
		<stop  offset="1" style="stop-color:#F63F00"/>
	</linearGradient>
	<path class="st5" d="M82.4,16c6.9-5.1,8.6,9.5,4.9,15.5c-3.5,5.7-14.6,5.3-19.1,6.3c-4.5,1-1.6,6.8-1.6,6.8l27.5-8.9l3.2-18.4
		l-9.9-4.4C87.6,12.9,83.8,13.7,82.4,16z"/>
	
		<linearGradient id="SVGID_2_" gradientUnits="userSpaceOnUse" x1="186.614" y1="28.76" x2="218.3016" y2="28.76" gradientTransform="matrix(-1 0 0 1 220.9512 0)">
		<stop  offset="0" style="stop-color:#FA9300"/>
		<stop  offset="0.4469" style="stop-color:#F66A00"/>
		<stop  offset="1" style="stop-color:#F63F00"/>
	</linearGradient>
	<path class="st6" d="M17.7,16c-6.9-5.1-8.6,9.5-4.9,15.5c3.5,5.7,14.6,5.3,19.1,6.3c4.5,1,1.6,6.8,1.6,6.8L5.9,35.7L2.6,17.3
		l9.9-4.4C12.5,12.9,16.3,13.7,17.7,16z"/>
	<linearGradient id="SVGID_3_" gradientUnits="userSpaceOnUse" x1="82.9575" y1="49.1349" x2="82.9575" y2="11.5524">
		<stop  offset="0" style="stop-color:#FF9600"/>
		<stop  offset="1" style="stop-color:#FFA900"/>
	</linearGradient>
	<path class="st7" d="M76.5,15.3c0,0,5-4,16.7-3.7c11.7,0.3,5.8,20,1.2,26.4c-4.4,6.2-19.9,3.5-22.8,5.1c-2.8,1.6-0.4,5.3-1.6,6
		c-1.2,0.6-4.8-3.2-3.9-6.4c0.9-3.3,17.2-5.2,23-10.5c6-5.5,4.1-16.4-1.2-17.1c-6.2-0.8-6.9,2.4-7.3,6.1c-0.4,3.6-6.3,4.5-6.3,4.5
		L76.5,15.3z"/>
	<linearGradient id="SVGID_4_" gradientUnits="userSpaceOnUse" x1="17.0461" y1="49.1285" x2="17.0461" y2="11.5561">
		<stop  offset="0" style="stop-color:#FF9600"/>
		<stop  offset="1" style="stop-color:#FFA900"/>
	</linearGradient>
	<path class="st8" d="M30.6,49.1L30.6,49.1c-0.2,0-0.3,0-0.4,0h0c-0.1,0-0.2,0-0.2-0.1c-1.2-0.7,1.2-4.4-1.6-6
		c-2.9-1.6-18.3,1.1-22.8-5.1C1,31.5-4.9,11.9,6.8,11.6c11.7-0.3,16.7,3.7,16.7,3.7l2.2,10.3c0,0-5.9-0.9-6.3-4.5
		c-0.4-3.7-1.1-6.9-7.3-6.1C6.8,15.8,4.9,26.6,11,32.1c5.8,5.3,22.1,7.2,23,10.5c0,0.1,0.1,0.3,0.1,0.4C34.4,45.8,32,48.7,30.6,49.1
		z"/>
	<path class="st9" d="M70.2,44.2c-1.5-2.2,9.2-7.2,15.2-8c6.1-0.9,7.8,1.8,7.7,2.5c0,0.6-2.1,2.9-9.5,3.5
		C76.3,42.8,72.5,41.8,70.2,44.2z"/>
	<path class="st9" d="M11.8,41.5c-7.5-3.3,7.4-4.1,13.7-2.4c6.2,1.7,5.7,5.4,5,5.5c-0.7,0.1-0.3-1.6-3-1.8
		C24.8,42.6,14.5,42.4,11.8,41.5z"/>
	<linearGradient id="SVGID_5_" gradientUnits="userSpaceOnUse" x1="2.7726" y1="12.5841" x2="23.4928" y2="12.5841">
		<stop  offset="0" style="stop-color:#FFE834"/>
		<stop  offset="1" style="stop-color:#FFCD00"/>
	</linearGradient>
	<path class="st10" d="M2.8,12.9c5.2-4.5,19.8-2.7,19.8-2.7l0.9,5.1C23.5,15.3,8.7,9.2,2.8,12.9z"/>
	<linearGradient id="SVGID_6_" gradientUnits="userSpaceOnUse" x1="77.4358" y1="11.7582" x2="96.3298" y2="11.7582">
		<stop  offset="0" style="stop-color:#FFCD00"/>
		<stop  offset="1" style="stop-color:#FFE834"/>
	</linearGradient>
	<path class="st11" d="M79.3,8.8c0,0,13.9-0.5,17,3.5c0,0-5.9-3-18.9,2.4L79.3,8.8z"/>
	<linearGradient id="SVGID_7_" gradientUnits="userSpaceOnUse" x1="22.5876" y1="43.3021" x2="79.3085" y2="43.3021">
		<stop  offset="0" style="stop-color:#FF9600"/>
		<stop  offset="1" style="stop-color:#FFA900"/>
	</linearGradient>
	<path class="st12" d="M79.3,9.7c0,0-3,12.6-6,21.6c0,0.1-0.1,0.2-0.1,0.3c0,0.1-0.1,0.2-0.1,0.2c-1,3-2.1,5.5-3,6.9
		C66.6,44.2,53.5,49.9,51.9,60c-0.4,2.5,0.1,4.4,1.1,5.8c2.8,4.1,9.4,4.8,10.4,5.6c0,0,0.1,0,0.1,0.1c1.4,1.1,2.7,4.4,2.7,4.4
		s-7.2,1.1-16.3,1.1c-9.1,0-16.2-1.1-16.2-1.1s1.4-3.4,2.8-4.4c1.1-0.7,8-1.5,10.8-5.8c1-1.4,1.4-3.3,1-5.6
		c-1.6-10.1-15.1-15.8-18.6-21.2c-2-3.1-4-11.7-5.4-18.6c-1.1-5.5-1.8-9.9-1.8-9.9l27.5,4.4L79.3,9.7z"/>
	<linearGradient id="SVGID_8_" gradientUnits="userSpaceOnUse" x1="22.4436" y1="7.8093" x2="79.3006" y2="7.8093">
		<stop  offset="0" style="stop-color:#FFCD00"/>
		<stop  offset="1" style="stop-color:#FFE834"/>
	</linearGradient>
	<path class="st13" d="M23.3,7.7c6.4-7.1,38.6-11.4,53.6-1.5C94,17.3,13.4,18.6,23.3,7.7z"/>
	
		<linearGradient id="SVGID_9_" gradientUnits="userSpaceOnUse" x1="38.8257" y1="4.4" x2="79.8218" y2="4.4" gradientTransform="matrix(1.0355 -3.360000e-02 3.240000e-02 0.9995 -10.1095 4.9914)">
		<stop  offset="0" style="stop-color:#F63F00"/>
		<stop  offset="0.5531" style="stop-color:#F66A00"/>
		<stop  offset="1" style="stop-color:#FA9300"/>
	</linearGradient>
	<path class="st14" d="M30.9,8.7c5.7,4.9,35.2,4.9,41.1-0.1c4-3.4-8.6-6.2-21.1-6.1C38.8,2.6,27.3,5.6,30.9,8.7z"/>
	<path class="st15" d="M73.1,31.9c-1,3-2.1,5.5-3,6.9C66.6,44.2,53.5,49.9,51.9,60c-0.4,2.5,0.1,4.4,1.1,5.8
		c-2.9,3.1-4.4,2.2-5.7-0.2c1-1.4,1.4-3.3,1-5.6c-1.6-10.1-15.1-15.8-18.6-21.2c-2-3.1-4-11.7-5.4-18.6l0.1-0.3
		c0,0,2.3,20.1,18.2,24.8C58.3,49.2,70.6,38.7,73.1,31.9z"/>
	<path class="st16" d="M34.6,42.1c0.6-1.4,7.8,4.4,14.1,6.2c6.3,1.9,1.2,6.1-1.1,5.5C45.3,53.2,35.9,43.5,34.6,42.1z"/>
	<path class="st17" d="M66.2,75.8c0,0-7.2,1.1-16.3,1.1c-9.1,0-16.2-1.1-16.2-1.1s1.4-3.4,2.8-4.4c-0.7,3,23,0.7,27.1,0.1
		C64.9,72.5,66.2,75.8,66.2,75.8z"/>
	<path class="st17" d="M53.3,76.8c-4.1-0.7-4.7-2.9-2.4-4c1.4-0.7,4.4-0.6,6.8-0.7c6.6-0.5,7.6,3.3,7.4,3.6
		C65,75.9,56.8,76.8,53.3,76.8z"/>
	<path class="st16" d="M42.5,72.9c-0.4,0-0.8,3-0.3,3.4s4.8,0.5,5.5,0.5c0.7,0,1.5-3.3,2.2-3.7C50.6,72.6,42.5,72.9,42.5,72.9z"/>
	<path class="st18" d="M41.3,72.6c-2.4-0.1,1.3-3.4,6.6-3.4c5.4,0,7.5,1.6,7.7,2.1C55.8,71.9,47.7,72.9,41.3,72.6z"/>
	<path class="st16" d="M27.1,12.9c-1.6-0.6-0.7,27.4,15.5,31.7c16.2,4.3,29.3-21.5,30.5-26.7c1.2-5.2-18.4-0.5-31.1-2.5
		C29.4,13.4,27.1,12.9,27.1,12.9z"/>
	<path class="st16" d="M62,3.6c-9.8,0.8-8.3,7-6.8,8.1c1.4,1.2,14.4-1.4,16.4-4.1C73.4,5.1,62,3.6,62,3.6z"/>
	<path class="st18" d="M62,3.6c-4,0.8,0.8,4.3,2.7,4.2c2-0.1,4-2.8,2.6-3.2C65.8,4.3,62,3.6,62,3.6z"/>
	<path class="st9" d="M88,12.3c-0.7,0.7,4.3,2.9,5.7,9.7c1.3,6.9,6,0.9,5.8-4.1C99.2,12.8,93.1,11.2,88,12.3z"/>
	<path class="st9" d="M1.1,22.3c0.3,4.5,3.5,6.6,4.1,6.5c0.6-0.1-0.5-11.2,7.2-15c3.3-1.6-9-1.1-10.2,0C1.1,14.9,0.8,17.9,1.1,22.3z
		"/>
	<path class="st18" d="M32,16.4c-2.8,1.3,0.4,5.3,1.7,5.1C35,21.2,34.7,15,32,16.4z"/>
	<path class="st19" d="M26.1,12.6c0,0,26.3,3.8,43.9,1.1C70.1,13.7,45.3,17.9,26.1,12.6z"/>
	<g class="st20">
		<path class="st21" d="M72.9,24.9c0,0.3-0.1,0.5-0.3,0.8c-1.1,2.3-4.8,5-6.9,3.9c-0.7-0.4-1.1-0.9-1.2-1.6c0,0,0,0,0,0
			c-0.5-2.4,1.8-6.3,3.2-8.6C69.6,16.3,73.4,22.4,72.9,24.9z"/>
		<path class="st21" d="M63.2,32.1c-0.1,0.7-0.3,1.6-0.6,2.6c-0.7,2.3-2.9,0.6-3.5-1.2c-0.1-0.3-0.2-0.6-0.2-0.9c0-2,2-3.7,3.7-2.8
			C63.2,30.1,63.4,30.9,63.2,32.1z"/>
		<path class="st21" d="M72.9,24.9c0,0.3-0.1,0.5-0.3,0.8l-0.2,0c0,0,0.1-0.7-0.5-2.7c-0.7-2-2.4-4.3-4.3-2.6
			c-1.9,1.7-3.1,7.4-3.1,7.6c-0.5-2.4,1.8-6.3,3.2-8.6C69.6,16.3,73.4,22.4,72.9,24.9z"/>
		<path class="st21" d="M63.2,32.1c0,0-1.4-2.5-2.8-2c-1.4,0.6-1.4,3.4-1.4,3.4c-0.1-0.3-0.2-0.6-0.2-0.9c0-2,2-3.7,3.7-2.8
			C63.2,30.1,63.4,30.9,63.2,32.1z"/>
	</g>
	<path class="st17" d="M75.1,25.4c0,0,3.2-1.6,4.8-4.3s-1.1-9.6-1.1-9.6L75.1,25.4z"/>
	<path class="st17" d="M22.9,12c0,0-0.5,2.4-1,2.7s-2.7,4.8-1.6,7.4c1.1,2.6,5.4,3.5,5.4,3.5S23.6,17.7,22.9,12z"/>
	<path class="st22" d="M7.3,22.1c0.5,4.7,1.9,5.3,2.9,5c1-0.3-0.5-10.1,4.4-12.2C14.5,14.9,7.5,14.4,7.3,22.1z"/>
	<path class="st22" d="M86.9,15.2c0.1,0.6,3.8,5.4,3.8,10.2c0,4.8,3.1-4.9,0.6-8C88.7,14.3,86.9,15.2,86.9,15.2z"/>
	<path class="st23" d="M10.5,32.7c-2.4-0.5,1.5,5.3,6.2,5.5c4.7,0.2,6.2,0,6.2,0S11.9,32.9,10.5,32.7z"/>
	<path class="st23" d="M80.5,36.5c0,0,8.2-0.1,10.2-1.1c1.9-1,2.1-4.9,1.6-5.1c-0.5-0.2-2.4,2-6.1,3.8
		C82.4,35.9,80.5,36.5,80.5,36.5z"/>
	<path class="st18" d="M83,12.9c-1.3,0.3-0.9-2.2,2.9-2.6c3.1-0.3,4.3,1.3,4.3,1.3S88.6,11.5,83,12.9z"/>
	<path class="st18" d="M12.2,12.1c-1.6-1,10.4-0.7,6.8,1.6C19,13.7,15.9,12.6,12.2,12.1z"/>
	<path class="st18" d="M42.5,72.9c-2.1-0.2,1.6-2.6,4.3-1.5C49.5,72.4,47.4,73.3,42.5,72.9z"/>
	<path class="st18" d="M83.3,35.5c-0.3,0.4,2.9,0.3,3.7-1.2C87.8,32.8,83.9,34.6,83.3,35.5z"/>
	<path class="st18" d="M20.3,36.8c0.1,0.6-4.6-0.4-4.4-1.3C16,34.5,20.2,36.1,20.3,36.8z"/>
	<path class="st24" d="M66,42.6c3.1-2.6,2.6,6.1,2.6,6.1S65.1,45.6,66,42.6z"/>
	<path class="st24" d="M30.6,49.1L30.6,49.1c-0.2,0-0.3,0-0.4,0h0c-0.2-1,1.8-7,3.8-6.1C34.4,45.8,32,48.7,30.6,49.1z"/>
	<path class="st22" d="M30.2,7.6c0.2-1.7,8.8-4.9,14.1-3.9s10.1,7.2,9.8,7.9S32.9,12.8,30.2,7.6z"/>
	<path class="st17" d="M55.6,50.8c-2,0.1-4.5-2.2-2.9-3.5c2.6-2.2,11.2-4.4,14.2-7.2c4.8-4.5,4.8-4.5,4.8-4.5s-1.1,3.3-5,6.7
		C62.7,45.6,56.6,50.7,55.6,50.8z"/>
	<g class="st25">
		
			<linearGradient id="SVGID_10_" gradientUnits="userSpaceOnUse" x1="50.8066" y1="38.1083" x2="50.8066" y2="12.1836" gradientTransform="matrix(1 0 0 0.9565 0 6.9013)">
			<stop  offset="4.189940e-02" style="stop-color:#EF6300"/>
			<stop  offset="1" style="stop-color:#E13E00"/>
		</linearGradient>
		<path class="st26" d="M62.9,30.5c0.2,7-5.1,12.8-12,12.8c-6.9,0-12.3-5.9-12-12.8c0.2-6.7,5.6-11.9,12-11.9
			C57.2,18.6,62.6,23.8,62.9,30.5z"/>
		<path class="st27" d="M39.8,34.9c1.1-4.5,21.5-7.5,22.6-6.4c1.1,1.2-1.3,13.7-11.2,13.8C41.2,42.4,39.5,36.1,39.8,34.9z"/>
		<linearGradient id="SVGID_11_" gradientUnits="userSpaceOnUse" x1="50.1443" y1="39.2304" x2="50.1443" y2="22.2644">
			<stop  offset="0" style="stop-color:#FF9600"/>
			<stop  offset="1" style="stop-color:#FFA900"/>
		</linearGradient>
		<path class="st28" d="M46.5,26.2c0,0,1.4,0.1,2.6-3.1c0,0,2.2-1.2,4.4-0.7l0.4,16.8h-5.1l-0.4-9.8l-1.9-0.2V26.2z"/>
		<linearGradient id="SVGID_12_" gradientUnits="userSpaceOnUse" x1="46.4588" y1="24.076" x2="53.4163" y2="24.076">
			<stop  offset="0" style="stop-color:#FFCD00"/>
			<stop  offset="1" style="stop-color:#FFE834"/>
		</linearGradient>
		<path class="st29" d="M46.5,26.2l0.2-0.6c0,0,1.8-0.8,2.1-2.9c0,0,2.9-1.3,4.7-0.2c0,0-2.2-0.4-4.2,0.7
			C49.2,23.1,48.4,26,46.5,26.2z"/>
		<path class="st30" d="M38.8,30.5c0,0,2.7-10.5,12.4-10.5c9.2,0,11.4,8.1,11.4,8.1s-1.6-9.9-12.1-9.6C40,18.8,38.7,29.4,38.8,30.5z
			"/>
		<linearGradient id="SVGID_13_" gradientUnits="userSpaceOnUse" x1="40.5179" y1="40.0376" x2="62.0133" y2="40.0376">
			<stop  offset="0" style="stop-color:#FFCD00"/>
			<stop  offset="1" style="stop-color:#FFE834"/>
		</linearGradient>
		<path class="st31" d="M40.5,37.4c0,0,3.5,6.3,11.1,5.9C59.1,43,62,35.5,62,35.5s-3.5,9-10.8,9C43.9,44.6,40.5,37.4,40.5,37.4z"/>
	</g>
</g>
<g class="st4">
	<path class="st32" d="M11.9,83.4h77.7c0,0,16.5-73.4-39.2-73.4C50.5,10-0.2,8.1,11.9,83.4z"/>
	<path class="st33" d="M18.3,85.4H3.6c-2,0-3.6-1.6-3.6-3.6v-8.5c0-2,1.6-3.6,3.6-3.6h14.7c2,0,3.6,1.6,3.6,3.6v8.5
		C21.9,83.8,20.3,85.4,18.3,85.4z"/>
	<path class="st33" d="M96.4,85.4H81.7c-2,0-3.6-1.6-3.6-3.6v-8.5c0-2,1.6-3.6,3.6-3.6h14.7c2,0,3.6,1.6,3.6,3.6v8.5
		C100,83.8,98.4,85.4,96.4,85.4z"/>
	<path class="st33" d="M17.4,50.9L3.8,48.7c-1.7-0.3-2.9-1.9-2.6-3.6l1.1-6.7c0.3-1.7,1.9-2.9,3.6-2.6L19.6,38
		c1.7,0.3,2.9,1.9,2.6,3.6l-1.1,6.7C20.8,50.1,19.1,51.2,17.4,50.9z"/>
	<path class="st33" d="M60.1,15.8l3.8-8.7c0.6-1.4,2.2-2,3.6-1.4l7,3c1.4,0.6,2,2.2,1.4,3.6L72.2,21c-0.6,1.4-2.2,2-3.6,1.4l-7-3
		C60.1,18.8,59.5,17.2,60.1,15.8z"/>
	<path class="st33" d="M20,36.4L8.1,29.5c-1.5-0.9-2-2.8-1.2-4.3l3.4-5.9c0.9-1.5,2.8-2,4.3-1.2L26.6,25c1.5,0.9,2,2.8,1.2,4.3
		l-3.4,5.9C23.5,36.7,21.5,37.2,20,36.4z"/>
	<path class="st33" d="M16.7,68.2H5.2c-1.8,0-3.3-1.5-3.3-3.3v-9.1c0-1.8,1.5-3.3,3.3-3.3h11.6c1.8,0,3.3,1.5,3.3,3.3v9.1
		C20,66.7,18.5,68.2,16.7,68.2z"/>
	<path class="st33" d="M82.6,50.9l13.6-2.2c1.7-0.3,2.9-1.9,2.6-3.6l-1.1-6.7c-0.3-1.7-1.9-2.9-3.6-2.6L80.4,38
		c-1.7,0.3-2.9,1.9-2.6,3.6l1.1,6.7C79.2,50.1,80.8,51.2,82.6,50.9z"/>
	<path class="st33" d="M83.3,68.2h11.6c1.8,0,3.3-1.5,3.3-3.3v-9.1c0-1.8-1.5-3.3-3.3-3.3H83.3c-1.8,0-3.3,1.5-3.3,3.3v9.1
		C80,66.7,81.5,68.2,83.3,68.2z"/>
	<path class="st33" d="M27.7,23.4l-7-9.2c-1.1-1.4-0.8-3.5,0.6-4.6L28.6,4c1.4-1.1,3.5-0.8,4.6,0.6l7,9.2c1.1,1.4,0.8,3.5-0.6,4.6
		L32.3,24C30.8,25.1,28.8,24.8,27.7,23.4z"/>
	<path class="st33" d="M74,22.1L84.3,17c1.6-0.8,3.6-0.2,4.4,1.5l4.1,8.2c0.8,1.6,0.2,3.6-1.5,4.4L81,36.2c-1.6,0.8-3.6,0.2-4.4-1.5
		l-4.1-8.2C71.7,24.9,72.4,23,74,22.1z"/>
	<path class="st33" d="M42.8,14.8V3.3c0-1.8,1.5-3.3,3.3-3.3h9.1c1.8,0,3.3,1.5,3.3,3.3v11.6c0,1.8-1.5,3.3-3.3,3.3h-9.1
		C44.2,18.1,42.8,16.7,42.8,14.8z"/>
	<path class="st34" d="M20.8,74.2c0,0,0.8,8.8-1,10C18,85.4,3.1,84.7,3.1,84.7s-3.8-2.4,1.4-2.4s12.9,0.9,13.7-1
		c0.7-1.9,0.3-7.5-0.2-7.7C17.4,73.3,18,69.5,20.8,74.2z"/>
	<path class="st34" d="M17.4,60.7c0,0,0.5,5-13.3,4.1c0,0-3.5,0.4,0.9,2.1s13-0.2,13.8-1.4c0,0,0.9-4.6,0.4-6.6
		C18.7,57,17.4,60.7,17.4,60.7z"/>
	<path class="st34" d="M2.7,46.6c0,0,13,3.8,16,2.7c3-1.1,2.3-5.3,2.3-5.3s-0.8-3.8-2,2.1C17.8,52,3.7,44.6,3.7,44.6
		S0.9,44.8,2.7,46.6z"/>
	<path class="st34" d="M7.7,26.9c0,0,11.8,9.2,13.6,9.1c0,0,3.1-2.4,4.7-7.7l0.7-2.1L25.1,26l-0.9,0.6c0,0-0.6,0.8-0.9,1.3
		c-0.3,0.4-0.9,1.4-0.9,1.8s0,0.8-0.2,1.4c-0.1,0.6-0.4,1.3-0.6,1.6c-0.2,0.2-0.4,0.4-1.5,0.4s-2.1-0.3-2.7-1
		c-0.6-0.7-1.4-0.8-1.2-1.6c0.1-0.8,0.1-1-0.3-1.5c-0.5-0.5-2.2-1.7-2.3-1.7c-0.1,0-0.4-0.2-1.3-0.4c-0.8-0.2-1-0.2-1.5-0.2
		c-0.4,0-1.3,0-1.6,0c-0.4,0-1.1,0.3-1.1,0.3L7.7,26.9z"/>
	<path class="st34" d="M31.9,23c0,0-0.1-0.1-0.3,0c-0.2,0.1-0.9,0.2-0.9,0.2h-0.8h-0.6c0,0-0.5-0.4-0.6-0.6c-0.1-0.2-0.6-0.3-0.8-1
		c-0.2-0.7-0.2-1.6-0.2-1.6s-0.1-0.2,0-0.4c0.1-0.1,0.4-0.2,0.5-0.3c0.1,0,0.4,0,0.8,0.2s0.8,0.2,0.9,0.3c0.1,0,0.5,0,0.8,0
		s0.4,0,0.8-0.1c0.4-0.1,0.8-0.4,1.2-0.5c0.4,0,0.5-0.1,0.8-0.3c0.3-0.2,0.1,0,0.8-0.3s0.7-0.4,1.3-0.6c0.7-0.2,1.1-0.4,1.6-0.8
		c0.4-0.3,0.6,0,0.7-0.7s0.3-0.1,0-1.6c-0.3-1.6-0.4-2.2-0.9-2.5c-0.5-0.3-1.1-0.4-1.2-1s-0.1-1.2-0.1-1.2V10c0,0,0.1-0.1,0.4,0
		c0.3,0.1,2.2,1,2.3,1.2s0.5,1.2,0.5,1.2s0.1,0.5,0.4,0.9s0.3,0.8,0.4,1c0.1,0.3-0.2,0.3,0,0.6c0.2,0.2,0.8,1.4,0.6,1.7
		c-0.2,0.3-0.8,0.7-0.8,0.7s-0.5,0.2-0.8,0.4c-0.2,0.2-1,0.8-1,0.8s-0.7,0.5-0.9,0.6c-0.2,0.1-0.7,0.5-1,0.8
		c-0.4,0.3-0.5,0.8-0.7,0.9c-0.1,0.1-0.6,0.5-0.6,0.8s0.2,0.1-0.3,0.5C33.3,22.4,31.9,23,31.9,23z"/>
	<path class="st34" d="M44.7,6.8c0,0-0.6,3.2-0.6,3.5c0,0.2,0.2,1,0.3,1.1s0.3,1.4,0.3,1.6c0,0.2-0.1,1,0,1.2c0.1,0.1,0,0.3,0.2,0.6
		s0.2,0.4,0.4,0.8c0.2,0.4,0.4,0.6,0.5,0.7c0.1,0,0.5,0.2,0.7,0.3c0.1,0.1,1.1,0.3,1.1,0.3s1.2,0.2,1.5,0.2c0.3,0,1.5-0.1,1.8,0
		c0.3,0.1,0.6,0.2,1.3,0c0.7-0.2,1.1-0.4,1.6-0.4s1.4,0.1,1.4,0.1s0.8-0.1,0.8-0.1c0.1,0,0.4-0.6,0.5-0.8c0.1-0.2,0.4-0.8,0.5-1.1
		c0.2-0.4,0.6,0,0.2-0.4s-0.4-0.4-0.6-0.4c-0.2,0.1-0.6,0.3-1.1,0.6c-0.5,0.3-1.1,0.3-1.6,0.5c-0.5,0.2-1.4,0.4-2.2,0.4
		c-0.8,0-1.8-0.1-2-0.1s-1.2-0.2-1.6-0.4c-0.5-0.1-1-0.4-1-0.5c0-0.1,0.2,0.5-0.1-1.1s-0.5-0.8-0.5-2.6s-0.2-2.3,0-2.5
		c0.1-0.3,0.1-0.9,0.3-1.6c0.1-0.7,0.4-1.4,0.6-1.7c0.1-0.3,0.3-1,0.3-1.3S47.2,2.2,47.1,2c-0.1-0.2-0.6-0.4-0.8-0.5s-0.7-0.3-0.9,0
		s-0.6,0.6-1,1.8S44,5.1,44,5.6s0.1,1,0.2,1.4C44.3,7.4,44.7,6.8,44.7,6.8z"/>
	<path class="st34" d="M65.6,8.1c0,0-0.4,0.6-1.4,1.7c-1,1.1-1.9,2.7-1.9,2.7s-0.6,1.3-0.7,1.5c-0.1,0.3-0.2,0.9-0.2,1
		c0,0.1-0.3-0.1,0,0.6c0.3,0.8,0.5,1.1,0.7,1.4c0.2,0.3,0.6,0.9,0.7,1c0.2,0.1,0.3,0.4,0.6,0.6c0.3,0.2,0.7,0.4,0.9,0.5
		c0.2,0.1,2.2,0.5,2.2,0.5s0.4,0.3,0.6,0.5c0.2,0.1,0.8,0.6,1.1,0.8c0.2,0.1,0.7,0.4,0.7,0.5c0.1,0.1,0.2,0.2,0.5,0.2
		s1.2-0.8,1.4-0.9c0.1-0.1,0.4-0.8,0.4-0.8s0-0.5,0-0.6c0-0.2,0.6-0.1-0.3-0.6s-1.4-0.6-1.4-0.6s-0.2,0-0.6,0c-0.4,0-0.8,0-0.8,0
		s-0.9-0.1-1.6-0.2c-0.7-0.1-1.7-0.3-1.9-0.5c-0.2-0.2-0.7-0.1-0.7-0.4s-0.3-0.6-0.1-1c0.2-0.4-0.2-0.2,0.2-1c0.5-0.8,0.4-1,0.6-1
		c0.2,0,0.2,0,0.6-0.5c0.3-0.4,0.4-0.4,0.6-1.2s0.1-1.4,0.2-1.6s0.1,0.1,0.1-0.2s0-0.7,0-0.7s0-0.4-0.1-0.7
		c-0.1-0.3-0.3-0.6-0.3-0.6L65.6,8.1z"/>
	<path class="st34" d="M74.1,26.1c0,0,1.9,2.2,2,2.4c0,0.2,0.1,0.4,0.4,1.1c0.3,0.7,0.2,1,0.4,1.4c0.2,0.4,0.2,0.6,0.6,1.2
		c0.4,0.6,0.3,0.7,0.4,1c0.1,0.2,0.2,0.5,0.3,0.5c0.1,0.1,0,0.2,0.5,0.2s1.1,0.2,1.5,0.2c0.4,0,1.1,0.1,1.2,0s1.1-0.4,1.5-0.5
		s0.7-0.2,1.3-0.7c0.6-0.5,0.9-1,1.7-1.4c0.8-0.4,1.9-0.9,2.2-1.1s0.8-0.6,1.1-1c0.2-0.4,0.3-0.8,0.2-0.9c-0.1-0.1-0.1-0.5-1.4-0.1
		c-1.3,0.4-2.9,1.5-3.4,2s-0.8,0.5-1.6,0.7s-1.6,0.3-1.9,0.4c-0.3,0-1,0.2-1.2-0.1c-0.2-0.2-0.2-0.5-0.5-1.2c-0.3-0.7-0.4-1-0.3-1.8
		c0.1-0.7,1-1.3-0.1-2.1s-2-0.9-2-1.4c0-0.5,0.1-0.9,0.5-1.3c0.4-0.5,0.5-1,1.3-1.6c0.8-0.6,1.8-0.9,2.2-1.1s0.8-0.7,0.2-0.7
		c-0.6,0-0.6-0.3-1.4,0c-0.8,0.3-1.2,0.5-1.4,0.7c-0.1,0.2-0.8,0.5-1.2,1.1c-0.4,0.6-0.4,0.5-1.1,1s-0.8,0.6-1.2,0.8
		c-0.3,0.2-0.8,0.4-0.8,0.6s0.1,0.7,0,0.8C74,25.5,74.1,26.1,74.1,26.1z"/>
	<path class="st34" d="M79.9,40.3c0,0-0.1,0.4,0,1.3s0.6,3.8,0.6,3.8s0.3,0.6,0.3,0.8c0,0.2-0.2,0.8-0.2,1.2c0,0.3-0.2,1-0.2,1
		s0.6,0.3,0.9,0.4s1.1,0.4,1.4,0.4c0.3,0,1.8,0.6,2,0.6c0.1,0,0.3,0,1.8-0.2c1.5-0.2,3.3-0.7,4-0.9c0.6-0.2,1.9-0.6,2.4-0.9
		c0.4-0.3,1.3-0.2,1.6-0.5c0.3-0.2,1.4-0.6,1.4-1.2C95.7,45.6,96,45.3,95,45c-1-0.3-3.3-0.4-3.4-0.2c-0.1,0.2-2.9,1.5-3.3,1.8
		c-0.3,0.3-1.6,0.4-2.4,0.5s-1.7,0.2-2.2,0S83,46.8,83,46.3s0.2-1.7,0.3-2.2s0.1-1.1,0.1-1.6c0-0.5-0.3-0.8,0.7-1.4
		c1.1-0.6,2.2-1.1,2.2-1.4c0.1-0.3,0.4-0.6,0-0.7c-0.4-0.1-2.4-0.5-3.7-0.2c-1.3,0.3-2,0.6-2,0.6l-0.8,0.7L79.9,40.3z"/>
	<path class="st34" d="M95.9,54.5c0,0-0.1-0.2,0,0.4c0.1,0.6-0.2,2.3-0.2,2.6c0,0.4,0.1,0.8-0.4,1.6s-0.5,1-0.5,1.7s0.7,1.4,0.5,1.7
		s0,0.5,0,1.2s0.2,1.7,0,1.8s-0.1,0.1-0.3,0.3c-0.1,0.2-0.8,0.7-1.1,0.8s-1.2-0.1-1.6,0c-0.4,0.1-1.9,0.1-2.2,0
		c-0.3-0.1-0.8-0.1-1.2-0.1c-0.3,0-2.8,0.3-3.2,0.2s-1.3,0.1-1.7,0c-0.4-0.1-0.7,0.4-1.1,0.2c-0.4-0.2-1.7-1.7-1.7-1.9
		s0.1-0.5,0.6-0.9c0.4-0.4,1.2-1.3,2.5-0.9s2.6,0.2,3.2,0.5c0.6,0.3,2.1,0.9,2.5,0.7c0.4-0.1,1.2-0.6,1.8-0.4c0.6,0.2,1-0.3,1-0.5
		c0-0.2,0-0.4,0.1-0.8c0.1-0.5,0.2-2.4,0-2.9c-0.3-0.5-0.1-1.4-0.1-2c0-0.6,0.1-1.5,0.5-1.7c0.4-0.2,1.4-0.7,1.4-0.8s0-0.2,0-0.4
		s-0.3-0.4,0.3-0.4S95.9,54.5,95.9,54.5z"/>
	<path class="st34" d="M95.8,73.2c0,0,0.2-0.1,0.2,0.4c0,0.2-0.1,0.4-0.2,0.7c-0.4,1.2-0.7,2.6-0.5,3.3c0.2,0.8,0.6,1.1-0.1,1.9
		c-0.6,0.8-1.9,1.1-3.6,1.5c-1.7,0.4-2.8,0.4-3.8,0.3S85.4,81,84.3,81s-2.3-0.1-2.5,0.3c-0.1,0.5-0.4,1.4,0,1.8
		c0.4,0.4,0.1,0.8,1.3,1s6.4,0.1,6.8,0.1c0.4,0-1.3,0.3,3-0.4s5.4-0.8,5.4-0.8l0.3-0.2c0,0,0.6-1.3-0.3-3c-0.9-1.7-0.8-3-0.6-3.8
		s0.3-1.9,0.3-2.1c0-0.2-0.9-1.6-0.9-1.6L95.8,73.2z"/>
	<path class="st35" d="M10.2,74H9c0,0-0.4,1.3-0.5,1.8c-0.1,0.5,0.2,1.8,0.3,2.1s0,0.4-0.1,0.9c-0.1,0.5-0.7,0.6-1.1,0.7
		s-1.3,0.2-1.8,0s-1.5-0.6-1.9-1c-0.4-0.3-1.1-0.8-1.6-1.7S0.9,74.4,1,74c0.1-0.4,0.3-1.1,0.5-1.3S1,71.9,2.9,71.9s3.6-0.2,4,0
		c0.4,0.2,1.6,0.8,1.8,0.9c0.2,0.1,1.3,0.9,1.3,0.9L10.2,74z"/>
	<path class="st35" d="M14.1,60.4c0,0,1.6-1.8,1.6-2.4c0.1-0.6,0-1.2,0-1.2s0.5-0.5-0.8-1.1s-1.5-1.1-4.7-0.6s-4.5,0.8-4.6,0.6
		s-0.3-1.6-0.3-1.6s0.6-0.2,1.9-0.4c1.3-0.1,3.8-0.2,4.4-0.4c0.6-0.1,2.8-0.6,3.8-0.4s2.1,0.9,2.3,1.1c0.2,0.1,1.1,1.2,1.1,1.6
		s0,1,0,1.5s-0.6,1.3-0.6,1.3s-0.5,0.3-0.9,0.5c-0.4,0.1-0.7,0.7-1.2,0.9c-0.4,0.3-1,0.6-1,0.6H14.1z"/>
	<path class="st35" d="M15.4,47c0,0,0.1,0.1,0.4-0.4s0.9-1.1,1-1.3c0.1-0.2,0.5-1.4,0.4-2c-0.1-0.6-0.7-1.3-0.9-1.5
		c-0.1-0.3-0.8-0.9,0.3-1.1c1.1-0.2,1.8-0.4,1.8-0.4s1.2-0.4,1.6-0.3c0.3,0.1,0.8,0.3,1.1,0.6c0.3,0.4-0.2,0.8,0,1.8
		c0.2,0.9,0.2,0.5,0.1,1.1C21,44,21,44,21,44s-0.2,1-0.4,1.3c-0.2,0.3-2,0.7-2.3,0.8c-0.3,0.1-1.2,0.3-1.2,0.3s-0.4,0.1-0.8,0.1
		S15.4,47,15.4,47z"/>
	<path class="st35" d="M24.3,24.9c0,0-0.8-0.8-1.8-1c-0.9-0.2-2.3-0.5-2.7-0.7c-0.4-0.1-2.5-1.6-2.9-1.8c-0.3-0.3-1.4-1.3-1.9-1.5
		s-0.3-0.4-0.7-0.2c-0.3,0.2-0.6,0.9-0.7,1.4c0,0.5-0.1,1.4,0.7,2.6s2.1,1.7,3.4,2.2c1.3,0.5,2.8,0.6,3,0.8c0.1,0.1,0.8,1.3,0.9,1.5
		c0.1,0.2,0.2,0.8,0.5,0.9c0.3,0.1,1.9-0.1,2.2-0.2s1.1-0.1,1.6-0.2s1.3-1.3,1.2-1.5c-0.1-0.2,0.3-0.6-0.4-1
		C25.9,25.9,24.3,24.9,24.3,24.9z"/>
	<path class="st35" d="M33.6,21.6c0,0-0.2,0.2-1.3,0.4c-1,0.1-2.2-0.1-2.9-0.4c-0.7-0.2-1.2-0.7-1.6-1.6s-1.1-1.6-1.6-2.1
		c-0.5-0.5-2-2.3-2-2.8s-0.6-1.3,0.3-1.9s0.6-1.8,2.6-1.1s2.9,1.6,3.1,2.4c0.2,0.8-1.5-0.8,0.3,1.6s2,2.7,2.2,2.8
		c0.2,0.1,0.3,0.1,1.2,0.7s0.9,1.2,0.9,1.2l-0.3,0.4l-0.6,0.4H33.6z"/>
	<path class="st35" d="M52.7,14.5c0,0,1.7-0.7,2-1s0.5-1.5,0.7-2.2c0.2-0.7,0.4-1.4,0.4-1.8c0-0.4,0.3-0.2,0-1.4s-0.4-1.8-0.9-2.3
		c-0.5-0.5-2.6-0.8-2.9-2.2c-0.3-1.4,0-2.3,0.7-2.2s3.1,0.1,3.2,0s1.5,8.6,1.5,8.6s0.1,1.8,0,2.1c-0.1,0.3-0.1,1.2-0.5,1.6
		c-0.4,0.3-0.6,0.8-0.6,0.8H52.7z"/>
	<path class="st35" d="M68.8,7.7c-0.1-0.1-0.3-0.6-0.8,0c-0.5,0.6-1.2,1.5-0.4,2.3c0.8,0.8,0.5,0.7,2.3,1.4c1.8,0.7,2.1,2.1,2,2.6
		c-0.1,0.5-0.7,1.7-0.5,2c0.2,0.3,2-1.8,2-1.8s0.3,0,0.5-0.5c0.3-0.4,0.8-1.4,0.8-1.7s0-1.1,0-1.1L74.3,10c0,0-0.3-0.1-0.9-0.4
		c-0.6-0.3-1.3-0.6-2-0.8s-2-0.7-2.3-0.9S68.8,7.7,68.8,7.7z"/>
	<path class="st35" d="M83.7,20.7l-1,3.5l1.3,1c0,0,1,0.8,1.1,1c0.1,0.2,0,0.6,0.2,1c0.2,0.4,2.7,0.5,3.2,0.5s2.5-0.5,2.5-0.5
		s0.5,0.8,0-0.7c-0.5-1.5-1.2-2.7-1.2-2.7s-1-1.3-1.1-1.5c-0.1-0.2-0.9-2.4-0.9-2.4s-0.5-1.9-0.8-2c-0.3-0.1-2.4,0.4-2.8,1
		C83.8,19.7,83.4,20.3,83.7,20.7z"/>
	<path class="st35" d="M92.8,40.3c0,0-0.3-0.2-0.7,0c-0.4,0.2-0.4,1.9-0.4,2.1c0,0.2,0.4,0.9-0.5,1.3c-0.8,0.3-1.4,1.1-1.5,1.2
		c-0.1,0.1,5.8,2.3,5.8,2.3l2.2-2.9c0,0,0.5-1.3,0-1.8s-0.3-3.2-0.8-3.7c-0.4-0.5-0.8-1.1-1.6-1.3c-0.8-0.2-1.3-1.1-2.3,0.9
		s-0.9,2.5-0.9,2.5L92.8,40.3z"/>
	<g class="st25">
		<path class="st36" d="M48.3,84.3h5.9V20.5c-1-0.1-2-0.2-3-0.2c0,0-1.1,0-2.9,0.1V84.3z"/>
		<path class="st36" d="M55.5,84.3h5.9V22.2c-1.8-0.7-3.7-1.2-5.9-1.5V84.3z"/>
		<path class="st36" d="M68.6,26.9c-1.6-1.6-3.5-3.1-5.9-4.2v61.6h5.9V26.9z"/>
		<path class="st36" d="M39.7,22.6c-2.1,0.9-4.2,2.1-6.1,3.8v57.9h6.1V22.6z"/>
		<path class="st36" d="M47,20.6c-1.7,0.2-3.8,0.7-5.9,1.5v62.2H47V20.6z"/>
		<path class="st36" d="M76.1,43.4c-0.1-0.9-0.9-8.7-6.1-15v55.9h4c1.2,0,2.2-1,2.2-2.2V43.5C76.1,43.5,76.1,43.4,76.1,43.4z"/>
		<path class="st36" d="M32.4,27.8c-3.1,3.4-5.3,8.4-5.3,15.6l-0.8,38.7c0,1.2,1,2.2,2.2,2.2h4V27.8z"/>
	</g>
	<path class="st35" d="M93.5,59c-0.5-0.2-0.9-0.4-1.6,0s-0.6,0.6-1.1,0.6c-0.5,0-1.5,0.1-2.1,0c-0.6-0.1-2.3-1.3-2.4-1.5
		c-0.1-0.1-0.9-0.5,0.6-1.6c1.6-1.1,3.9-1.8,4-1.8c0.1,0,1.4-0.3,1.7-0.3c0.4,0,1.8-0.2,1.8-0.2s1.2,1.3,1.5,2
		c0.3,0.7-0.6,1.1-0.2,3.2c0.4,2.1,1.1,2.1,0.4,2.1c-0.7,0-0.6-0.2-1.3-0.8c-0.7-0.6-1-0.9-1-0.9v-0.4L93.5,59z"/>
	<path class="st35" d="M94.3,72.4c-0.1-0.1-0.2-0.2-0.4-0.3c-0.7-0.4-1.8-0.7-3.2-0.4c-1.7,0.4-3.6,1.6-3.6,2.4s1.4,1.8,2,1.8
		s3,0,3.3,0.1c0.3,0.1,0.6,0.4,0.7,0.9c0.1,0.5,0.2,1.2,0.9,1.3s1.8,0.5,2.8,0s0.9-1.8,1.4-2.5s0-2.6-0.6-3
		c-0.6-0.4-0.2-0.5-1.6-0.5"/>
	<circle class="st37" cx="65.5" cy="60.2" r="5.1"/>
	<path class="st38" d="M70.2,59.7c0,0-0.4,4.1-3.2,4.8l-1.5,0.2c0,0-0.6,0.1-0.8,0c-0.2-0.1-0.7-0.3-1-0.3s-0.5-0.2-0.5-0.2
		s-0.3-0.1-0.4,0.1c-0.1,0.2-0.1,0.3-0.1,0.5c0,0.1,0.6,0.6,0.8,0.6s0.6,0.1,0.8,0.1c0.3,0,0.7,0.1,1,0.1c0.3,0.1,0.8-0.1,1.1,0
		c0.3,0.1,0.9,0.1,1.3-0.1c0.4-0.2,0.8-0.4,0.9-0.5c0.1,0,0-0.2,0.4-0.4c0.4-0.2,0.6-0.3,0.9-0.4c0.3-0.1,1.3-3,1.3-3s0.1-1,0.1-1.1
		c0-0.1,0-0.4,0-0.4l-0.5-0.3c0,0-0.1,0.1-0.2,0.1c-0.1,0-0.2,0.1-0.2,0.1L70.2,59.7z"/>
	<path class="st39" d="M60.4,60.4c0,0-0.2,1.1-0.1,1.2c0,0.1,0.1,0.6,0.1,0.7c0.1,0.1-0.1,0.5,0,0.7c0.1,0.1,0.1,0.3,0.2,0.5
		c0.1,0.2,0.4,0.5,0.4,0.5s0.9,1.1,1.3,1.2s1.6,0.1,1.6,0.1c0.1,0-0.1-0.2,0-0.3c0.1-0.1-0.5-0.4-0.6-0.4c-0.1-0.1-0.3-0.2-0.3-0.2
		l-0.4-0.3c0,0-0.1,0.2-0.3-0.2c-0.2-0.5-0.1-0.6-0.3-0.7C62,63,61.9,63,61.9,62.8s-0.1-0.6-0.2-1c-0.1-0.4-0.2-0.8-0.2-0.9
		c0-0.1,0-0.5,0-0.7c0-0.2,0-0.4,0-0.4s-0.2-0.1-0.3-0.1c-0.1,0-0.2,0.1-0.3,0.1S60.4,60.4,60.4,60.4z"/>
	<path class="st39" d="M70,57.7l-0.3,0.2V59c0,0,0.2-0.1,0.1,0.3c-0.1,0.5-0.2,1,0,1.1c0.2,0.1-0.5,0.1,0.1,0.2
		c0.6,0.1,0.8,0.1,0.8,0.1l0.2-0.1c0,0-0.1-0.5,0-0.6c0.1-0.1,0-0.3,0-0.6c0-0.2,0.2-0.4,0-0.6c-0.1-0.2-0.4-0.4-0.4-0.6
		c0-0.1-0.2-0.3-0.2-0.3s-0.3,0-0.3,0L70,57.7z"/>
	<path class="st40" d="M35.4,82.4c0,0,0.5-2.4,0.5-3.3c0-0.9,0.3-2.2,0.4-2.4c0.1-0.3,0.6-0.8,0.4-1.8s-0.1-2.8,0-4s0.6-8.8,0.6-9.1
		s0-0.6,0-0.6s0.5,1.8,0.5,1.9c0,0.1-0.1,1.2,0,1.4c0.1,0.2-0.2,2.5-0.2,2.8s0.1,3.2,0.3,4s0,0,0,1.9c0,1.9,0.1,2.3,0.1,2.5
		c-0.1,0.2-0.3,1-0.5,1.6c-0.1,0.6,0-0.3-0.1,1.3c-0.1,1.6-0.2,1.7-0.2,1.9c0,0.2,0.1,0.4,0,0.5c-0.2,0.1-0.1,0.7-0.4,0.8
		s-0.5,0.6-0.5,0.6H35.4z"/>
	<path class="st40" d="M24.8,61.2"/>
	<path class="st40" d="M50.7,38c0,0-0.4,0-0.5,0.8c-0.1,0.8-0.3,0.7,0,2.8c0.3,2.1,0.4,5.4,0,6.4c-0.4,0.9,0.3,3.3,0.2,4.6
		c-0.1,1.3-0.3,3.4-0.2,3.8c0.1,0.4,0.6,1.2,0.5,2.1c-0.1,0.9,0.2,4.8,0,5.3c-0.2,0.5-1.1,1.4-1.1,1.6c0,0.2,1.3-0.1,1.6-1.2
		s0.4-1.5,0.7-2.1c0.4-0.6,0.4-2.4,0.4-2.6c0-0.2-0.4-2.3-0.4-2.7s-0.1-2.3-0.1-3.2s0.1-1.4,0-1.8c-0.1-0.4-0.8-1.2-0.9-2.5
		c-0.1-1.3-0.1-2.3,0.2-3c0.3-0.7,0.3-1.2,0.4-2.7s-0.4-1.9-0.4-2.5c0-0.6-0.2-1.3-0.2-1.6C51,39,50.7,38,50.7,38z"/>
	<path class="st40" d="M50.6,82.4c0,0,0.2-0.2,0.4-0.6c0.3-0.5,0.8-1.1,0.8-1.3c0.1-0.4,1-1.3,0.5-2.5c-0.5-1.2-0.7-1.6-1.1-2.2
		c-0.5-0.6-0.5-1.3-0.7-1.6c-0.1-0.3,0.4-1.2,0.7-1.2s0.5,1.4,0.7,2.2c0.3,0.7,0.4,1.1,0.4,1.1c0.1,0.5,0.6,2.2,0.6,2.4
		c0,0.2,0,1.4,0,1.6c0,0.3,0.6,0.8,0,1.1c-0.6,0.3-1.1,0.5-1.1,0.5L50.6,82.4z"/>
	<path class="st40" d="M35.9,48c0,0,0-0.2,0.1-0.4c0-0.3,0.1-0.9,0.1-1.4c0-0.6,0-1.3-0.2-1.9c-0.4-1.5,0.2-7.5,0.2-7.5
		s0.6-3.2,0.6-4c0-0.7-0.9-2.1-0.9-2.1s-0.5-1.6-0.4-2c0-0.3,0.8-1.4,1.2-1.9c0.1-0.1,0.2-0.2,0.2-0.2s-0.6-1.3,0,1.8
		s1.2,4.8,1.2,5.5c0,0.7-0.2,1.5-0.4,2.6c-0.2,1.1-0.9,2.7-0.9,4.1c0,1.4-0.5,2.9-0.3,3.7c0.2,0.8,0.2,0.8,0.2,0.8l-0.5,2.1L35.9,48
		z"/>
	<path class="st40" d="M42.2,23.2v1.2c0,0-0.1,1.5,0,1.9c0.1,0.4,0,0.9,0,0.9l0.4-1.3v-1.6c0,0,1.6-0.8,1.3-1.2
		c-0.2-0.4-0.5-0.6-0.5-0.6s-0.4-0.2-0.7,0C42.5,22.8,42.2,23.2,42.2,23.2z"/>
	<path class="st40" d="M48.9,21.6c0,0,0.6,1.7,0.7,2c0.1,0.4,0,1.2,0,1.2s-0.4,2.3-0.4,2.9s0,1.9,0,1.9s0.3-0.6,0.7-1.3s-0.4-3,0-4
		s0.5-1.4,0.5-1.4L50,22L48.9,21.6z"/>
	<path class="st40" d="M45.3,22.6v1.7c0,0-0.4,0.9-0.6,1.6c-0.3,0.7-0.7,2.4-0.7,2.4s0.3,2.1,0.7,4.2c0.4,2.1,0.3,5.5,0.3,6.1
		c0,0.7,0.3-6.1,0.3-6.6c0-0.5,0-1.4,0-1.4s-0.1-1-0.3-1.6s0.2-1.3,0.3-1.8c0.1-0.5-0.3-1,0-1.3c0.3-0.3,0.6-2.7,0.6-2.7L45.3,22.6z
		"/>
	<path class="st40" d="M72.1,47c0,0,0.4,0.8,0.8,2c0.2,0.7,0.4,1.5,0.4,2.4c0.1,2.4,0,6.4,0,6.4s-0.1,2.8,0,3.4
		c0.1,0.6,0,2.8-0.3,4.7c-0.1,0.4-0.2,0.7-0.3,1.1c-0.6,1.9-0.4,3.7-0.6,4.2c-0.2,0.5,0,2.8,0,2.8s2.2,0.6,1.9-0.4
		c-0.2-0.9,0-3.6,0-3.6s0.7-8.9,0.7-10.7c0-1.8,0.1-3.4,0-4.9c-0.1-1.5-0.5-3-0.7-3.5S72.1,47,72.1,47z"/>
	<path class="st40" d="M66.8,81.7c-0.1,0.1-0.5,0.3-0.5,0.3s-1.4,0.6-1.2-1.4S67,77.3,67,77s-0.8-3-1.1-4.4
		c-0.3-1.5,0.1-1.3,0.1-1.3s-0.7,0.6-1,0.8c-0.3,0.2,0,0.8,0,1.2s-0.1,0.6,0,1.3c0.1,0.8-1.1,1-0.9,3.8s0.1,3.3,0.2,3.5
		c0.1,0.3,0.4,0.6,0.6,0.9s0.7,0.3,0.7,0.3s0.8-0.2,0.9-0.3s0.5-1,0.5-1H66.8z"/>
	<path class="st40" d="M28.3,81.6c0,0-0.3,1-0.3,0.4c0-0.3,0.1-0.8,0.3-1.9c0.6-3.6,1-4.2,1-4.6s-0.1-2.3-0.5-3.7
		c-0.4-1.4-0.5-4.6-0.5-4.9c0-0.3,0.6-4.5,0.6-4.5l0.4-2.1c0,0,1.3,0.9,0.6,2.1s-0.6,2-0.6,2.8s-0.2,0.7,0,1.7c0.2,1,0,2.4,0.2,2.8
		c0.2,0.4,0.1,1.1,0.6,2.6c0.5,1.5,0.5,2.7,0.5,2.7c0,0,0.1,0.6,0.1,1.7c0,1.1-0.6,2.8-0.7,2.9c-0.1,0.2-0.1,0.3-0.1,0.7
		c0,0.4,0.4,1.5,0.4,1.5l0.4,0.6c0,0,0.6,0.8-0.4,0.7c-0.9-0.1-1.3,0-1.3,0L28.3,81.6z"/>
	<path class="st40" d="M30.8,49.5l-0.7-9.1l0.7-2.4l-0.7-0.8c0,0-0.3-1-0.7,0c-0.4,1-0.6,0.7-0.6,1.6s0,1.5-0.1,1.8
		c-0.1,0.4,0.1,0.8,0,1.1c-0.1,0.4,0.7,2.2,0.7,2.8s-0.7,2.6-0.7,2.6s0.3,1.5,0,1.9c-0.3,0.4,0,1.1,0,1.1l0.6-1.7
		c0,0,0.5-1.2,0.4-1.2c-0.1-0.1-0.1-0.1-0.1-0.1s0.9,0.4,0.8,0.6c-0.2,0.2-0.1,0.4,0,0.9c0.1,0.6,0.1,0.6,0.1,0.6L30.8,49.5z"/>
	<path class="st40" d="M65.3,28.4c0.3,1.2,1.1,1.3,1.1,1.3v-0.8L65.7,28v-0.7l-0.1-0.7L64.8,26C64.8,26,65,27.2,65.3,28.4z"/>
	<path class="st40" d="M56.7,22.6c0,0,0,1.2,0,1.5c0,0.4-0.4,3.3-0.3,3.7c0.1,0.4,0.6,0.4,0.6,1.3s0,2.4,0,2.4s1-0.7,1-1.3
		s0-2.8,0-2.8s0-0.8,0-1c0-0.2,0-1.7,0-1.7l0.5-0.5c0,0,0.4-0.4,0-0.8c-0.4-0.4-0.9-0.8-0.9-0.8s-0.1,0-0.5-0.1
		C56.7,22.6,56.7,22.6,56.7,22.6z"/>
	<path class="st40" d="M59.3,23.2c0,0,0.3,0.9,0.3,1.2c0,0.3,0,1.4,0,1.9s-0.1,1.5-0.1,1.5l0.5,0.6c0,0,0.4-0.7,0.3-1.1
		c-0.1-0.4,0-1.4,0-1.4v-0.6c0,0,0.1-0.8,0.2-0.8c0.1,0,0-0.6,0-0.6L59.3,23.2z"/>
	<path class="st40" d="M43,83.6c0,0-0.4-0.1-0.4-0.1s-1.1,0.8-0.2-0.8c0.9-1.6,0.5-3.1,0.6-3.4c0.1-0.3-0.2-1.8-0.2-2
		s0.8-0.1,0.7,0.3c-0.1,0.4-0.2,0.7-0.1,0.9c0.1,0.2,0.4,1,0.3,1.2c-0.1,0.2-0.1,0.8-0.1,1c-0.1,0.2,0,0.2-0.2,0.7s-0.2,0.8-0.2,1
		c0,0.1,1.1,1,1.2,0.7c0.1-0.3,0.4-1,0.7-1.4c0.3-0.3,0.5-1.1,0.5-1.6s-0.1-1.7-0.2-1.8s-0.1-0.4,0.2-0.2c0.3,0.2,0.7,0.8,0.6,1.2
		s-0.4,1.7-0.7,2.3s-0.2,0.3-0.5,1c-0.3,0.7-0.4,0.7-0.4,0.8S43,83.6,43,83.6z"/>
</g>
<g class="st4">
	<g class="st25">
		<g>
			<path class="st41" d="M51.5,144.7l-2.7,0c-4.1,0-7.3-3.4-7.3-7.4l0.9-95L59,42.5l-0.9,95.7C58.1,141.8,55.2,144.7,51.5,144.7z"/>
			<path class="st42" d="M52.2,44l-0.9,98.3h0c3.1,0,5.7-2.5,5.7-5.6l0.8-92.7L52.2,44z"/>
			
				<rect x="50.1" y="30.7" transform="matrix(9.050262e-03 -1 1 9.050262e-03 10.3066 90.2359)" class="st43" width="1.2" height="18.5"/>
			<g>
				<path class="st43" d="M47.2,21.9c0-1.5,1-2.9,2.3-3.4l0.2-17.2L35.1,21c10,4.2,7.3,16.2,7.3,16.2l6.9,0.1l0.1-11.9
					C48.2,24.8,47.2,23.5,47.2,21.9z"/>
				<path class="st43" d="M66.4,21.3L52.2,1.4L52,18.5c1.5,0.5,2.6,1.9,2.6,3.5s-1.1,3-2.6,3.5l-0.1,11.8l6.9,0.1
					C58.8,37.4,56.3,25.3,66.4,21.3z"/>
			</g>
			<path class="st41" d="M53.6,5.8l1,9c0.4,3.8,3.8,6.7,7.6,6.5c1.4-0.1,2.6-0.1,3-0.1C65.2,21.2,53.2,7.8,53.6,5.8z"/>
			<path class="st44" d="M42.8,36.9c0,0,0.7-4.2-0.6-9.2c0,0-0.9-2.7-1.7-3.3l6,0.1c0,0,1.1,1.6,2.2,1.7L49,36.8L42.8,36.9z"/>
			<path class="st41" d="M43.4,18.5c0.1-0.1-4,4.7-0.7,6.7c3.3,2,4.4-0.6,4.4-0.6S42,20,43.4,18.5z"/>
			<path class="st45" d="M48.3,4.8L36.4,20.6l9.5,0.5c0,0,1.1-3.6,2.4-3.5L49,3.3L48.3,4.8z"/>
			<polygon class="st42" points="47.1,45.5 46.7,84.5 49.8,90.3 50.2,44 47.1,44 			"/>
		</g>
	</g>
	<g class="st46">
		<g>
			<path class="st41" d="M39.1,137.1l-2.3,0.3c-3.5,0.5-6.7-1.9-7.2-5.4L17.8,50.1L32.1,48L44,130.6
				C44.5,133.8,42.3,136.7,39.1,137.1z"/>
			<path class="st42" d="M26.5,50.3l12.2,84.9h0c2.7-0.4,4.6-2.9,4.2-5.6l-11.5-80L26.5,50.3z"/>
			
				<rect x="16.5" y="46.4" transform="matrix(0.9898 -0.1424 0.1424 0.9898 -6.4321 3.9816)" class="st43" width="16.1" height="1"/>
			<g>
				<path class="st43" d="M19.3,31.9c-0.2-1.3,0.5-2.6,1.6-3.2l-2.1-14.8l-10,18.9c9.2,2.3,8.5,13,8.5,13l6-0.9l-1.5-10.3
					C20.5,34.3,19.5,33.2,19.3,31.9z"/>
				<path class="st43" d="M35.7,28.8L20.8,13.5L23,28.3c1.3,0.2,2.5,1.3,2.7,2.7c0.2,1.4-0.6,2.8-1.8,3.3l1.5,10.2l6-0.9
					C31.3,43.7,27.6,33.6,35.7,28.8z"/>
			</g>
			<path class="st41" d="M22.6,17.2l2,7.6c0.9,3.3,4.1,5.3,7.4,4.6c1.2-0.3,2.2-0.4,2.6-0.5C34.6,28.9,22.6,19,22.6,17.2z"/>
			<path class="st44" d="M17.5,45.3c0,0,0-3.7-1.7-7.9c0,0-1.1-2.2-1.9-2.6l5.2-0.7c0,0,1.1,1.3,2.2,1.1l1.5,9.2L17.5,45.3z"/>
			<path class="st41" d="M15.5,29.5c0.1-0.1-2.9,4.6,0.3,5.8c3.1,1.3,3.7-1.1,3.7-1.1S14.5,31,15.5,29.5z"/>
			<path class="st45" d="M17.9,17L9.8,32.2l8.3-0.8c0,0,0.4-3.3,1.6-3.3l-1.2-12.4L17.9,17z"/>
			<polygon class="st42" points="22.3,52.2 27.1,85.9 30.5,90.5 24.8,50.5 22.1,50.9 			"/>
		</g>
	</g>
	<g class="st46">
		<g>
			<path class="st41" d="M60.2,137.4l2.3,0.3c3.5,0.5,6.7-1.9,7.2-5.4l11.8-81.9l-14.3-2.1l-11.9,82.6
				C54.9,134.1,57.1,137,60.2,137.4z"/>
			<path class="st42" d="M72.9,50.6l-12.2,84.9h0c-2.7-0.4-4.6-2.9-4.2-5.6l11.5-80L72.9,50.6z"/>
			
				<rect x="74.2" y="39.2" transform="matrix(0.1424 -0.9898 0.9898 0.1424 17.3478 114.5149)" class="st43" width="1" height="16.1"/>
			<g>
				<path class="st43" d="M80.1,32.2c0.2-1.3-0.5-2.6-1.6-3.2l2.1-14.8l10,18.9c-9.2,2.3-8.5,13-8.5,13l-6-0.9l1.5-10.3
					C78.9,34.6,79.9,33.5,80.1,32.2z"/>
				<path class="st43" d="M63.6,29.1l14.9-15.3l-2.1,14.8c-1.3,0.2-2.5,1.3-2.7,2.7c-0.2,1.4,0.6,2.8,1.8,3.3l-1.5,10.2l-6-0.9
					C68.1,44,71.8,33.9,63.6,29.1z"/>
			</g>
			<path class="st41" d="M76.8,17.5l-2,7.6c-0.9,3.3-4.1,5.3-7.4,4.6c-1.2-0.3-2.2-0.4-2.6-0.5C64.7,29.2,76.8,19.3,76.8,17.5z"/>
			<path class="st44" d="M81.9,45.7c0,0,0-3.7,1.7-7.9c0,0,1.1-2.2,1.9-2.6l-5.2-0.7c0,0-1.1,1.3-2.2,1.1l-1.5,9.2L81.9,45.7z"/>
			<path class="st41" d="M83.9,29.8c-0.1-0.1,2.9,4.6-0.3,5.8c-3.1,1.3-3.7-1.1-3.7-1.1S84.9,31.3,83.9,29.8z"/>
			<path class="st45" d="M81.5,17.3l8.1,15.2l-8.3-0.8c0,0-0.4-3.3-1.6-3.3L81,15.9L81.5,17.3z"/>
			<polygon class="st42" points="77.1,52.5 72.3,86.2 68.8,90.8 74.6,50.8 77.3,51.2 			"/>
		</g>
	</g>
</g>
<g>
	<radialGradient id="SVGID_14_" cx="23.5085" cy="25.5392" r="34.455" gradientUnits="userSpaceOnUse">
		<stop  offset="0" style="stop-color:#CE5411"/>
		<stop  offset="1" style="stop-color:#B42B00"/>
	</radialGradient>
	<path class="st47" d="M17,59.1c0,0-11-27.1-6.1-39.6c5-12.5,34.1-11.8,40.2,0c6.1,11.8-2.6,40.4-2.6,40.4L17,59.1z"/>
	<linearGradient id="SVGID_15_" gradientUnits="userSpaceOnUse" x1="42.3396" y1="59.891" x2="42.3396" y2="8.4219">
		<stop  offset="0" style="stop-color:#B42B00"/>
		<stop  offset="1" style="stop-color:#CE5411"/>
	</linearGradient>
	<path class="st48" d="M17,59.9h49.2l8.9-49.2c0,0-23.2-5.4-53.1,0.7c0,0-11.6,2.8-12.4,14C8.8,36.6,17,59.9,17,59.9z"/>
	<linearGradient id="SVGID_16_" gradientUnits="userSpaceOnUse" x1="72.1226" y1="59.891" x2="72.1226" y2="10.3763">
		<stop  offset="0" style="stop-color:#A71100"/>
		<stop  offset="1" style="stop-color:#B53303"/>
	</linearGradient>
	<path class="st49" d="M57.3,59.9c0,0-6.1-27.9-1.9-40.4c4.1-12.5,28.4-11.8,33.5,0c5.1,11.8-5.3,39.6-5.3,39.6L57.3,59.9z"/>
	<path class="st50" d="M78.8,14.7c-1.1-1.5-11.8,0.1-13.3,1.5S64.2,53,65,54c0.8,1.1,10.9,0.7,11.4,0.7
		C76.9,54.7,78.8,14.7,78.8,14.7z"/>
	<path class="st50" d="M83.4,16c-1.7-0.2-6,39-5.5,39.1c0.5,0.1,3.8-0.8,6.3-6.9c2.5-6.1,3.7-21,3.3-24.3C87.1,20.7,83.4,16,83.4,16
		z"/>
	<linearGradient id="SVGID_17_" gradientUnits="userSpaceOnUse" x1="74.3749" y1="61.7709" x2="74.3749" y2="8.1651">
		<stop  offset="5.027930e-02" style="stop-color:#FF3F00"/>
		<stop  offset="1" style="stop-color:#D92E03"/>
	</linearGradient>
	<path class="st51" d="M84.3,59.9L84.3,59.9c-0.1,0.4-0.2,0.7-0.3,1c0,0,0,0,0,0c-0.2,0.5-0.3,0.8-0.3,0.8c0,0,0,0,0,0l-3.6-0.1
		c0,0,0,0,0,0c0-0.1,0.1-0.3,0.3-0.7c0.4-0.9,1-2.7,1.9-5.1c2.9-8.2,7.4-23.3,5.7-32C85.9,13.1,73.1,7.7,63.9,10.7
		c-0.1,0-0.1,0.1-0.2,0.1c-2.1,0.7-4,1.9-5.5,3.5c0,0,0,0-0.1,0.1c7.8-8.8,30.1-9.8,32.2,6.9C92,35.3,86.3,54,84.3,59.9z"/>
	<path class="st52" d="M62.6,12.1l0.8,43.4C63.4,55.5,64.4,17.7,62.6,12.1z"/>
	<path class="st52" d="M79.6,12.7l-2.8,43.1C76.8,55.7,80.4,25.7,79.6,12.7z"/>
	<linearGradient id="SVGID_18_" gradientUnits="userSpaceOnUse" x1="59.7329" y1="61.878" x2="59.7329" y2="4.5689">
		<stop  offset="0" style="stop-color:#FF9600"/>
		<stop  offset="1" style="stop-color:#FFA900"/>
	</linearGradient>
	<path class="st53" d="M53.9,61.9h-6.1c0,0-5-25.1-3-39C47.3,6.7,62.2,2.8,75.1,5.2c0,0-14.2-0.9-19.5,8.8
		C50.3,23.7,53.9,61.9,53.9,61.9z"/>
	<linearGradient id="SVGID_19_" gradientUnits="userSpaceOnUse" x1="71.6916" y1="61.8817" x2="71.6916" y2="4.8684">
		<stop  offset="0" style="stop-color:#FF7C00"/>
		<stop  offset="1" style="stop-color:#FF6800"/>
	</linearGradient>
	<path class="st54" d="M91.9,41.7C91.9,41.7,91.9,41.7,91.9,41.7c-1.8,10.8-4.5,20.1-4.5,20.1h-3.7c0,0,0,0,0,0
		c0-0.1,0.1-0.3,0.3-0.8c0,0,0,0,0,0c0.1-0.3,0.2-0.6,0.3-1v0c1.9-5.9,7.6-24.3,6-37.7C89,11,74.1,6.9,63.9,10.7
		c-0.1,0-0.1,0.1-0.2,0.1c-2.1,0.8-4,2-5.5,3.5c0,0,0,0-0.1,0.1c-1.5,1.5-2.7,3.5-3.3,5.7c-2.9,11.1,0.1,27.1,2,35.4
		c0.6,2.6,1.1,5.2,1.3,5.9l0.1,0.3l-4.3,0.2c0,0-7.2-24.4-2-42.7c6.5-22.9,39.9-15.7,41.3,3.4C93.6,28.3,92.9,35.3,91.9,41.7z"/>
	<linearGradient id="SVGID_20_" gradientUnits="userSpaceOnUse" x1="53.658" y1="36.0375" x2="89.3796" y2="36.0375">
		<stop  offset="0" style="stop-color:#FF7A00"/>
		<stop  offset="1" style="stop-color:#FF6800"/>
	</linearGradient>
	<path class="st55" d="M53.7,32.6c0,0,20.7,0.7,35.7,0.6c0,0-0.5,4.6-0.8,5.8c-0.2,1.2-34.7,0-34.7,0L53.7,32.6z"/>
	<linearGradient id="SVGID_21_" gradientUnits="userSpaceOnUse" x1="71.5188" y1="33.3023" x2="71.5188" y2="32.236">
		<stop  offset="0" style="stop-color:#FF9600"/>
		<stop  offset="1" style="stop-color:#FFA900"/>
	</linearGradient>
	<path class="st56" d="M53.7,32.6c0,0,23.6,1.1,35.7,0.6C89.4,33.2,72.1,31.6,53.7,32.6z"/>
	<linearGradient id="SVGID_22_" gradientUnits="userSpaceOnUse" x1="16.8342" y1="61.774" x2="16.8342" y2="8.1634">
		<stop  offset="0" style="stop-color:#FF9600"/>
		<stop  offset="1" style="stop-color:#FFA900"/>
	</linearGradient>
	<path class="st57" d="M16.4,61.8c0,0-12.3-22.4-9.3-39.6C9.6,7.9,27,8.2,27,8.2S17.5,10,13.4,19.7c-4.1,9.7,7.7,42,7.7,42H16.4z"/>
	<path class="st58" d="M28.4,59.1c0,0-9.1-21.4-7.2-35.6C23.2,9.4,36.9,9.1,36.9,9.1S25,11.2,22.2,21.8
		C18.7,34.9,28.4,59.1,28.4,59.1z"/>
	<path class="st58" d="M41.4,59.1c0,0-7.7-25.7-4.7-39.4C39.5,7.1,50.3,8.4,50.3,8.4S40.2,7.2,37.1,21.1
		C33.8,35.8,41.4,59.1,41.4,59.1z"/>
	<linearGradient id="SVGID_23_" gradientUnits="userSpaceOnUse" x1="25.4481" y1="61.774" x2="25.4481" y2="7.9335">
		<stop  offset="0" style="stop-color:#FF6400"/>
		<stop  offset="1" style="stop-color:#FF6800"/>
	</linearGradient>
	<path class="st59" d="M38.9,8.9c0,0-5.9-1.8-14.9-0.5C15.1,9.8,11,20,12.1,32.8c1.1,12.8,9,28.9,9,28.9h3.4l3.8-2.6l-4.7-0.1
		c0,0-10.5-19.8-8-35.9C17.8,9.8,38.9,8.9,38.9,8.9z"/>
	<linearGradient id="SVGID_24_" gradientUnits="userSpaceOnUse" x1="28.9112" y1="38.9969" x2="28.9112" y2="30.7088">
		<stop  offset="0" style="stop-color:#FF9600"/>
		<stop  offset="1" style="stop-color:#FFA900"/>
	</linearGradient>
	<path class="st60" d="M14.3,38.2c0,0-1.3-3.9-1.1-5.6c0.2-1.7,31.1-1.9,31.1-1.9l0.3,7.5C44.6,38.2,23.2,40,14.3,38.2z"/>
	<path class="st58" d="M26.9,37.5l0.3-1.6c0,0-1.2-1.4-0.8-2.2c0.4-0.9,1.6-0.9,2-0.5c0.4,0.4-0.3,2.6-0.3,2.6l0.8,1.7L26.9,37.5z"
		/>
	<path class="st30" d="M12,26.2c0.5,1.6,3.4,5.5,3.4,5.5s-0.1-9.4,4-14.5C23.5,12.2,36,9.1,36,9.1s-7.6-2.9-14.7,0.5
		S12,26.2,12,26.2z"/>
	<path class="st30" d="M53.7,28.4c0.2,1.2,3.3-12.9,18.9-13c15.5-0.1,14.7,11.9,16.8,12.4c2.1,0.5,2.6-13.3-8-16.6
		c-10.6-3.3-19.1-1-23.4,3.3C53.8,18.8,53.7,28.4,53.7,28.4z"/>
	<path class="st30" d="M54.8,44.7c0-4.2,24.2-4,27.2-4.3c3-0.4,3.4,6.3,4.8,4.3c1.4-2,1.8-5.7,1.8-5.7s-14.2,0.1-34.7,0L54.8,44.7z"
		/>
	<path class="st61" d="M58.2,61.7c0,0-3.1,0.2-4.3-0.8c-1.2-1-4.8-21.7-3.7-31.9c1.1-10.2,6.3-18.7,9.5-20.2c3.2-1.5-2.8,3-5.3,11.1
		C51.9,28,52.9,48.6,58.2,61.7z"/>
	<linearGradient id="SVGID_25_" gradientUnits="userSpaceOnUse" x1="56.6007" y1="58.6384" x2="84.1647" y2="58.6384">
		<stop  offset="0" style="stop-color:#FF7A00"/>
		<stop  offset="1" style="stop-color:#FF6800"/>
	</linearGradient>
	<path class="st62" d="M83.8,60.9c-0.1,0.5-0.1,0.8-0.1,0.8c0,0,0,0,0,0l-3.6-0.1l-21.4,0l-0.4,0l-0.1-0.3l-1.5-5.9c0,0,0.1,0,0.2,0
		c2.2,0,19.7,0.2,25.4,0.3c1.1,0,1.8,0.1,1.8,0.1C84.4,56.1,84,59.3,83.8,60.9z"/>
	<linearGradient id="SVGID_26_" gradientUnits="userSpaceOnUse" x1="33.281" y1="61.878" x2="33.281" y2="56.2632">
		<stop  offset="0" style="stop-color:#FF9600"/>
		<stop  offset="1" style="stop-color:#FFA900"/>
	</linearGradient>
	<path class="st63" d="M18.8,56.4c0.8-0.3,28.2,0,28.2,0l0.9,5.5l-26.7-0.1L18.8,56.4z"/>
	<linearGradient id="SVGID_27_" gradientUnits="userSpaceOnUse" x1="32.844" y1="56.4146" x2="32.844" y2="53.8923">
		<stop  offset="0" style="stop-color:#FFDE00"/>
		<stop  offset="1" style="stop-color:#FFE834"/>
	</linearGradient>
	<path class="st64" d="M18.8,56.4l3-1.5c0,0,12.8,2,24.8-1l0.4,2.5H18.8z"/>
	<linearGradient id="SVGID_28_" gradientUnits="userSpaceOnUse" x1="28.7783" y1="32.5603" x2="28.7783" y2="30.5606">
		<stop  offset="0" style="stop-color:#FFDE00"/>
		<stop  offset="1" style="stop-color:#FFE834"/>
	</linearGradient>
	<path class="st65" d="M13.2,32.6l2.2-0.8c0,0,19.6-1.6,28.9-1C44.3,30.7,27,32.5,13.2,32.6z"/>
	<path class="st30" d="M14.3,38.2c0,0,2.7,6.1,3.8,6.9c1.1,0.8,0-4,12.2-4.7C42.5,39.6,45.2,44,45.2,44l-0.5-5.8
		C44.6,38.2,24.9,38.9,14.3,38.2z"/>
	<path class="st41" d="M45.5,21.6c-0.2,1.8,4.2,1,4.8,0.7c0.6-0.3,3.7-8.8,4.5-10.2c0.8-1.4-3.5-0.5-4.8,0.2
		C48.8,13,46.1,17.2,45.5,21.6z"/>
	<path class="st41" d="M11.6,24.4C11.3,25.6,6.8,25,6.8,25s1-7.1,3-9.3c2-2.2,4.3-3.1,5.3-2.7C16.1,13.4,13,18,11.6,24.4z"/>
	<path class="st66" d="M6.8,25.9c-0.1,0.4,0.1,6.4,0.5,7.1c0.4,0.6,3.7,1,4.3,0.8c0.6-0.2,0.1-7.3,0-7.8
		C11.4,25.4,6.8,25.9,6.8,25.9z"/>
	<path class="st66" d="M46,22.7c-1.1-0.1-0.6,6.3-0.8,7c-0.2,0.7,3.4,0.6,3.7,0.4c0.4-0.2,1.4-5.7,1.1-6.7
		C49.8,22.4,46,22.7,46,22.7z"/>
	<path class="st66" d="M43.9,31.6c-0.2-0.8-11.8,0.8-13,1.2c-1.1,0.4-2,5.1-1.2,5.4c0.8,0.3,14.4-0.4,14.6-0.6
		C44.6,37.3,43.9,31.6,43.9,31.6z"/>
	<path class="st61" d="M54,33.8c0.4-1.2,21.4-0.1,23.6,0.9c2.2,1,0.7,3.5,0,4c-0.7,0.4-23.1,0.3-23.4,0C54,38.3,54,33.8,54,33.8z"/>
	<path class="st41" d="M53.7,14.2c-0.1-1.9-4.7,1.9-4.7,4.9c0.1,3,2.9,0.1,2.9,0.1L53.7,14.2z"/>
	<path class="st41" d="M14.3,16.5C15,13,10,20,10,22.3S13,22.9,14.3,16.5z"/>
	<path class="st41" d="M15.1,32.5C13.5,33,17.7,35,19.3,35c1.6,0,4.4-2.7,4.4-2.7L15.1,32.5z"/>
	<path class="st41" d="M35.5,56.4c-1.6-0.9,6.7-2,8.2-1.6c1.5,0.4,2.6,1.9,2.6,1.9L35.5,56.4z"/>
	<path class="st30" d="M15,59c0,0,1.6,2.7,15.2,2.3c13.6-0.4,23.7-0.4,23.7-0.4l4.6,0.8l-4.6,0.2l-37.5-0.1L15,59z"/>
	<path class="st30" d="M85.4,46.5c0,0-3.3,7-4.8,7.8c-1.5,0.9-20.8,0-22.5,0c-1.7,0-2.3-4.3-2.3-4.3l0.9,5.5L83,55.8L85.4,46.5z"/>
	<path class="st67" d="M21.8,23.8c-0.2,1.8,13-0.9,13.6-2.1c0.6-1.2,5.6-10.5,7.3-12c1.8-1.5-9.1-0.2-12,1.8
		C27.7,13.4,22.5,17.2,21.8,23.8z"/>
	<path class="st67" d="M37.6,21.1c-0.1,1.6,4.6,0.7,5.6,0.3s5.8-9.9,8.2-11.7c2.4-1.8-7.4-0.3-9.6,2.2
		C39.5,14.3,37.6,21.1,37.6,21.1z"/>
	<path class="st67" d="M21.2,23.5c-1.8,0.9-4.2,0.4-4.5-0.8c-0.3-1.2,3.5-7.3,7.6-9.2C28.4,11.6,22,14.7,21.2,23.5z"/>
	<path class="st30" d="M91.9,41.7c-1.8,10.8-4.5,20.1-4.5,20.1h-3.7l-3.6-0.1c0,0,0,0,0,0l-21.4,0l25.1-0.8c0,0,0.1,0,0.2,0
		c0.6,0.1,2.7,0.3,3.1,0.2C87.6,61,91.8,42.2,91.9,41.7z"/>
	<path class="st30" d="M18.8,56.4c0,0-3.3-9.5-3-10.5c0.3-1,5.1,7.3,7.2,8.3c2.1,1,8.8,1.2,8.8,1.2s-8.8-0.1-10.1-0.6
		C20.5,54.5,18.8,56.4,18.8,56.4z"/>
	<path class="st50" d="M28,54.8c-1.2,0.2-3.5-11.5-2.6-12.7c0.9-1.2,8.9-0.2,10.6,0.6c1.6,0.9,3.3,11.5,2.9,12.1
		C38.6,55.4,29.2,54.6,28,54.8z"/>
	<path class="st50" d="M39.4,42.1c-1.1-0.2,1.1,11.4,1.7,11.8c0.6,0.4,4.4,0,4.7-1c0.3-1-0.6-7.6-1.2-8.8
		C44,42.9,39.4,42.1,39.4,42.1z"/>
	<path class="st66" d="M15,38c-0.3-1.3,3.7-2.7,6.5-2.3c2.8,0.4,4.2,2.6,4.2,2.6L15,38z"/>
	<path class="st41" d="M11.7,47.6c0.4-2.1,1.5,1,1.6,2C13.3,50.6,11.2,50.1,11.7,47.6z"/>
</g>
</svg>
