<?xml version="1.0" encoding="utf-8"?>
<!-- Generator: Adobe Illustrator 22.1.0, SVG Export Plug-In . SVG Version: 6.00 Build 0)  -->
<svg version="1.1" id="Layer_1" xmlns="http://www.w3.org/2000/svg" xmlns:xlink="http://www.w3.org/1999/xlink" x="0px" y="0px"
	 viewBox="0 0 24 24" style="enable-background:new 0 0 24 24;" xml:space="preserve">
<style type="text/css">
	.st0{fill:none;}
	.st1{fill:#FFFFFF;}
	.st2{fill:#CECECE;}
	.st3{fill:#EFEFEF;}
	.st4{fill:none;stroke:#9E9E9E;stroke-miterlimit:10;}
	.st5{fill:#757575;}
	.st6{font-family:'AdobeMyungjoStd-Medium-KSCpc-EUC-H';}
	.st7{font-size:28.9287px;}
	.st8{fill:#2D2D2D;}
</style>
<g>
	<rect x="-12.6" y="-12.6" class="st0" width="49.3" height="49.3"/>
</g>
<g>
	<path class="st1" d="M-3.1-0.9C-3.8-0.3-4.4,0-4.4,1c0,0.3,0,0.9,0.3,0.9s0.3,0,0.6-0.3C-2.2,0.6-1.2-0.6,0-1.6
		C1-2.2,2.2-2.8,2.5-3.8v-0.3c0-0.3,0-0.3,0-0.3C0.3-4.7-1.6-2.2-3.1-0.9z"/>
	<circle class="st2" cx="12" cy="12" r="20.5"/>
	<ellipse class="st3" cx="12.2" cy="12" rx="15.5" ry="15.5"/>
	<ellipse class="st4" cx="12.2" cy="12" rx="18.3" ry="18.3"/>
	<g>
		<g>
			<text transform="matrix(1 0 0 1 3.1816 22.3156)" class="st5 st6 st7">I</text>
			<text transform="matrix(1 0 0 1 1.5215 22.3156)" class="st8 st6 st7">I</text>
		</g>
		<g>
			<text transform="matrix(1 0 0 1 10.6738 22.3156)" class="st5 st6 st7">I</text>
			<text transform="matrix(1 0 0 1 9.0137 22.3156)" class="st8 st6 st7">I</text>
		</g>
	</g>
	<path class="st1" d="M13.3-6.9c-0.6,0-1.3,0-1.9,0.6c-0.3,0-0.3,0.3-0.3,0.6c0,0.3,0.3,0.3,0.6,0.3c0.6,0,1.3,0,1.6,0
		c0.6,0,0.9,0.3,1.3,0.3h0.3v-0.3C14.5-5.7,14.5-6,14.5-6v-0.3l0,0c-0.6-0.3-1.3-0.3-1.9,0"/>
	<path class="st1" d="M-1.2,26.2c0.9,0.9,1.9,1.6,3.2,2.2s2.5,1.3,3.8,1.3c0.3,0,0.6,0,0.6-0.3c0.3-0.3,0.3-0.6,0.3-0.9
		c0-0.3-0.3-0.6-0.6-0.6c-0.3-0.6-1.3-0.6-2.2-0.9c-1.9-0.6-3.5-2.2-4.7-3.8c-0.3-0.3-0.9-0.9-1.6-1.3h-0.3c0,0-0.3,0-0.3,0.3
		C-4.1,23.4-2.2,25.6-1.2,26.2z"/>
</g>
</svg>
